<?xml version="1.0" encoding="utf-8"?>
<!-- Generator: Adobe Illustrator 19.2.1, SVG Export Plug-In . SVG Version: 6.00 Build 0)  -->
<svg version="1.1" id="Layer_1" xmlns="http://www.w3.org/2000/svg" xmlns:xlink="http://www.w3.org/1999/xlink" x="0px" y="0px"
	 viewBox="0 0 960 560" style="enable-background:new 0 0 960 560;" xml:space="preserve">
<style type="text/css">
	.st0{fill:#8A5FFD;}
	.st1{fill:#FFFFFF;}
	.st2{fill:#FFD400;}
</style>
<rect class="st0" width="960" height="560"/>
<path class="st1" d="M389.1,318.5c-7.1-10-13-18.8-17.7-26.5c13.1-4.3,19.6-11.5,19.6-21.8c0-15.8-14.8-23.7-44.4-23.7h-31.2
	c1.3,2.3,2.3,7.3,3,14.9c0.7,7.7,1.1,13.8,1.1,18.2v17.1c0,4.4-0.4,10.4-1.1,18c-0.7,7.6-1.7,12.6-3,14.8h34.2
	c-1.1-2.4-2.1-7.5-2.9-15.2c-0.8-7.7-1.2-13.6-1.2-17.7v-1.5c1.8,0.3,3.8,1.9,5.8,4.8c2,2.9,3.6,6,4.7,9.2c1.1,3.2,2.3,6.5,3.4,9.9
	c1.1,3.4,1.8,5.3,1.9,5.5c1,2.3,0.7,3.9-0.8,4.9H400C395.9,326.6,392.3,322.9,389.1,318.5 M360.5,285.7c-3.1,4.4-7.4,6.7-12.8,7.1
	h-2.1l0.2-43.6c0.4-0.1,1.1-0.2,2.1-0.2c5.5,0,9.8,1.9,12.7,5.7c2.9,3.8,4.4,8.7,4.4,14.6C365.2,275.9,363.7,281.3,360.5,285.7"/>
<path class="st1" d="M521,293.7c0-6.4-1.1-11.8-3.3-16.3c-2.2-4.5-5.2-7.7-8.9-9.7c-3.7-2-7.3-3.4-10.7-4.2
	c-3.4-0.8-7.1-1.2-10.9-1.2c-4.1,0-8.6,1-13.5,3.1c-4.8,2.1-8.5,5-11.1,8.9c-0.4,0.7-0.4,1.3,0,1.7c0.3,0.4,1.5,2.1,3.7,4.9
	c2.2,2.9,3.7,4.8,4.4,6c0.6,0.6,0.8,0.5,0.8-0.2c0.1-4.7,1.4-9.1,3.7-13.2c2.3-4.1,5.5-6.4,9.5-6.8h1.3c7.8,0,11,6.2,9.6,18.6
	c-2.1,0.1-5,0.7-8.5,1.7c-3.6,1-8,2.3-13.2,4.6c-20.5,8.9-20.8,19.7-35,22.3c-8.7,1.6-15.5-3.7-20.1-11.1c3-0.3,6.1-0.8,9.4-1.6
	c3.3-0.8,6.8-1.9,10.5-3.4c3.7-1.5,6.8-3.5,9.4-6.2c2.6-2.6,4.1-5.7,4.7-9.1c0.8-5.4-1.2-10.1-6.2-14.2c-5-4.1-11.3-6.1-18.8-6.1
	c-0.3,0-0.8,0-1.4,0.1c-0.6,0.1-1.1,0.1-1.4,0.1c-11.4,0.6-19.8,4.5-25.2,11.6c-5.4,7.2-7.9,15.3-7.5,24.5
	c0.6,10.3,4.2,18.3,10.8,24.1c6.6,5.8,15.1,8.8,25.5,8.8c7.4-0.3,13.9-2.7,19.5-7.3c2.9-2.3,5.1-4.9,6.7-7.8c0.3,10,7.1,15,20.5,15
	c4.7-0.3,8.9-1.7,12.5-4.3c3.6-2.6,6.4-5.4,8.2-8.5c1,7.4,5,11.1,12.2,11.1H525c-2.7-5.4-4.1-10.1-4.1-14.1V293.7z M414,283.2
	c0.1-4.1,1.1-8.1,2.8-12c1.7-3.8,4.1-5.7,7-5.6c3,0.2,5.2,2.2,6.6,6.1c1.4,3.9,1.9,7.5,1.3,10.8c-0.7,4.6-2.5,8.4-5.2,11.5
	c-2.8,3.1-5.7,5.2-8.9,6.2C414.9,295.5,413.7,289.8,414,283.2 M485.7,322.7c-0.7,0-1.2-0.1-1.5-0.2c-4.6-1-6.5-5.3-6-12.8
	c0.4-6.4,2.6-11.5,6.4-15.4c3.8-3.8,7.5-6.3,11.1-7.3V314c0,0.9,0.1,1.5,0.2,1.9C492.6,320.5,489.2,322.7,485.7,322.7"/>
<path class="st1" d="M561.9,228.9l-29.9,8.5c2.7,5,4.1,9.9,4.1,14.7v62.4c0,4.8-1.4,9.8-4.1,14.7h34.2c-2.7-5-4.1-9.9-4.1-14.7
	L561.9,228.9z"/>
<path class="st2" d="M586.9,252.3c3.7,0,6.9-1.4,9.5-4.1c2.6-2.7,3.9-5.8,3.9-9.4c0-3.7-1.3-6.9-3.9-9.5c-2.6-2.6-5.8-3.9-9.5-3.9
	c-3.7,0-6.9,1.3-9.6,3.9c-2.7,2.6-4.1,5.8-4.1,9.5c0,3.7,1.4,6.9,4.1,9.5C580,250.9,583.2,252.3,586.9,252.3"/>
<path class="st1" d="M647.7,294.1c0-9.5-2.3-17.2-6.8-23.1c-1.1-1.4-2.2-2.6-3.5-3.6c-4.3-3.4-10-5.2-17-5.2
	c-8,0.4-13.7,4.2-17.1,11.3V254l-29.9,7.5c0.6,1.1,1.2,2.2,1.6,3.4c1.6,3.8,2.4,13.8,2.4,17.5v32.3c0,4.8-1.4,9.8-4.1,14.7h34.2
	c-2.7-5-4.1-9.9-4.1-14.7v-26.1c-0.3-5,0.4-9.5,1.9-13.6s3.9-6.3,7.1-6.7c6.7,0,10,6.1,10,18.2V314c0,10.3,4.2,15.4,12.6,15.4h16.7
	c-2.7-4.5-4.1-9.2-4.1-13.9V294.1z"/>
<path class="st1" d="M723.3,315.5v-21.4c0-9.5-2.3-17.2-6.8-23.1c-4.6-5.8-11.4-8.8-20.5-8.8c-8,0.4-13.7,4.2-17.1,11.3v-13.5
	l-29.2,7.3c1.3,1,2.5,2.2,3.5,3.6c4.6,5.8,6.8,13.5,6.8,23.1v21.4c0,4.7,1.4,9.3,4.1,13.9h19.1c-2.7-5-4.1-9.9-4.1-14.7v-26.1
	c-0.3-5,0.4-9.5,1.9-13.6s3.9-6.3,7.1-6.7c6.7,0,10,6.1,10,18.2V314c0,10.3,4.2,15.4,12.6,15.4h16.7
	C724.6,324.8,723.3,320.2,723.3,315.5"/>
<path class="st1" d="M284.8,235h-92.3c-4,0-7.3,3.3-7.3,7.3v92.3c0,4,3.3,7.3,7.3,7.3h92.3c4,0,7.3-3.3,7.3-7.3v-92.3
	C292.1,238.3,288.8,235,284.8,235 M228.6,265.1h8.1v14.9h-8.1V265.1z M202.2,283.1c0.4-0.4,0.8-0.9,1.3-1.3c0.5-0.4,0.9-0.8,1.4-1.2
	c0.5-0.4,0.9-0.7,1.3-1c0.8,0.6,1.7,1.4,2.6,2.3c0.9,0.9,1.7,1.7,2.4,2.6c-0.7,0.8-1.5,1.7-2.4,2.5c-0.9,0.9-1.8,1.6-2.6,2.3
	c-0.4-0.3-0.8-0.7-1.3-1c-0.5-0.4-0.9-0.8-1.4-1.2c-0.4-0.4-0.9-0.9-1.3-1.3c-0.4-0.4-0.8-0.9-1.1-1.3
	C201.5,284,201.8,283.6,202.2,283.1 M221.2,296.9c-0.9,2.2-2.1,4-3.7,5.4c-1.6,1.4-3.5,2.5-5.7,3.2c-2.2,0.7-4.6,1.1-7.2,1.1
	c-2.6,0-4.9-0.3-6.7-1c-1.9-0.6-3.4-1.5-4.6-2.6c-1.2-1.1-2.1-2.4-2.7-3.8c-0.6-1.5-0.9-3-0.9-4.6c0-0.7,0.1-1.5,0.2-2.3
	c0.1-0.8,0.4-1.7,0.7-2.5c0.3-0.8,0.7-1.6,1.2-2.4c0.5-0.8,1.1-1.5,1.8-2.1c1,0,2.1,0.1,3.2,0.4c1.1,0.3,2.1,0.6,2.9,1
	c-0.3,0.3-0.6,0.8-0.9,1.2c-0.3,0.5-0.5,1-0.7,1.5c-0.2,0.5-0.3,1-0.4,1.6c-0.1,0.5-0.2,1-0.2,1.4c0,0.6,0.1,1.2,0.2,1.9
	c0.1,0.6,0.4,1.2,0.9,1.8c0.5,0.5,1.2,1,2.1,1.3c0.9,0.3,2.2,0.5,3.8,0.5c1.5,0,2.9-0.1,4.2-0.4c1.2-0.3,2.3-0.7,3.1-1.4
	c0.8-0.7,1.5-1.6,1.9-2.7c0.4-1.1,0.7-2.5,0.7-4.2c0-0.8,0-1.6-0.1-2.3c-0.1-0.7-0.1-1.4-0.2-2.2c-0.1-0.8-0.2-1.6-0.4-2.5
	c-0.2-0.9-0.4-1.9-0.7-3.1h8.1c0.3,1.1,0.5,2,0.7,2.9c0.2,0.8,0.3,1.6,0.4,2.4c0.1,0.8,0.2,1.5,0.2,2.3c0,0.8,0.1,1.6,0.1,2.6
	C222.5,292.2,222.1,294.7,221.2,296.9 M226.3,291.9c0.1-0.7,0.2-1.5,0.3-2.2h3.5c-0.7-0.3-1.3-0.7-1.7-1.2c-0.4-0.5-0.6-1.1-0.6-1.8
	c0-0.9,0.4-1.7,1.3-2.2c0.9-0.5,2-0.8,3.5-0.8c1,0,1.8,0.1,2.5,0.3c0.6,0.2,1.2,0.4,1.7,0.6c-0.1,0.7-0.1,1.4-0.3,2.1
	c-0.1,0.7-0.3,1.4-0.6,2.1c-1.1-0.4-2-0.7-2.7-0.7c-0.8,0-1.2,0.3-1.2,0.9c0,0.6,0.5,0.9,1.4,0.9h4.6c0,0.7-0.1,1.4-0.2,2.2
	c-0.1,0.8-0.3,1.5-0.6,2.2h-10.9C226.2,293.4,226.2,292.7,226.3,291.9 M251.1,303.2c-1.3,1.2-2.9,2.1-4.6,2.6
	c-1.7,0.6-3.7,0.9-5.7,0.9c-2.2,0-4.1-0.3-5.8-1c-1.7-0.6-3.1-1.5-4.2-2.6c-1.1-1.1-2-2.4-2.6-3.8c-0.3-0.9-0.6-1.7-0.7-2.7h9.3
	c0.3,0.3,0.8,0.6,1.2,0.8c0.7,0.3,1.7,0.5,2.8,0.5c1.2,0,2.3-0.2,3.2-0.5c0.9-0.3,1.7-0.8,2.3-1.6c0.6-0.7,1.1-1.7,1.4-2.9
	c0.3-1.2,0.5-2.6,0.5-4.3v-23.5h8.1v18.3c0,1.7,0.3,2.8,0.8,3.5c0.5,0.6,1.3,0.9,2.3,0.9c1,0,1.7-0.3,2.3-1c0.5-0.7,0.8-1.9,0.8-3.8
	v-7.4h8.1v9.6c0,2.1-0.2,3.8-0.7,5.3c-0.5,1.4-1.1,2.6-1.9,3.5c-0.8,0.9-1.7,1.6-2.8,2c-1.1,0.4-2.2,0.6-3.4,0.6h-0.4l0,0
	c-1.3,0-2.3-0.4-3.2-1c-0.9-0.7-1.5-1.8-2-3.4c-0.3,2.5-0.8,4.7-1.7,6.5C253.5,300.5,252.4,302,251.1,303.2 M269.2,305
	c-0.9,0.9-1.8,1.6-2.6,2.3c-0.5-0.4-1-0.8-1.6-1.3c-0.6-0.5-1.1-1-1.7-1.6c-0.6,0.5-1.1,1-1.7,1.6c-0.6,0.5-1.1,1-1.6,1.3
	c-0.4-0.3-0.8-0.6-1.3-1c-0.5-0.4-0.9-0.8-1.4-1.2c-0.5-0.4-0.9-0.9-1.3-1.3c-0.4-0.4-0.8-0.9-1.1-1.3c0.3-0.4,0.7-0.8,1.1-1.3
	c0.4-0.4,0.8-0.9,1.3-1.3c0.5-0.4,0.9-0.8,1.4-1.2c0.5-0.4,0.9-0.7,1.3-1c0.5,0.4,1,0.8,1.6,1.3c0.6,0.5,1.1,1,1.7,1.6
	c0.5-0.5,1.1-1,1.7-1.6c0.6-0.5,1.1-1,1.6-1.3c0.8,0.6,1.7,1.4,2.6,2.3c0.9,0.9,1.7,1.7,2.4,2.6C270.9,303.3,270.1,304.1,269.2,305
	 M284.6,294.1c0,2.2-0.3,4-0.8,5.5c-0.5,1.5-1.3,2.8-2.3,3.9c-1,1-2.2,1.8-3.6,2.3c-1.4,0.5-3,0.8-4.7,0.9c-0.3-1.5-0.5-2.9-0.6-4.3
	c-0.1-1.4-0.1-2.9-0.1-4.5c0.7,0,1.4-0.1,1.9-0.2c0.5-0.1,0.9-0.4,1.2-0.8c0.3-0.4,0.5-1,0.7-1.7c0.1-0.8,0.2-1.8,0.2-3.1v-16.5h8.1
	V294.1z"/>
</svg>
