<?xml version="1.0" encoding="UTF-8"?>
<svg version="1.1" xmlns="http://www.w3.org/2000/svg" width="500" height="500">
<path d="M0 0 C1.893196 1.22924062 1.893196 1.22924062 4.796875 0.98828125 C6.14541018 2.3062374 7.47492733 3.64365866 8.796875 4.98828125 C11.21433736 6.76744551 13.73044714 8.39635788 16.234375 10.05078125 C26.6332799 17.0759775 36.24689732 24.60693766 44.30859375 34.30859375 C45.70948339 36.0999465 45.70948339 36.0999465 47.796875 36.98828125 C48.8033025 38.65107452 49.80272907 40.31811609 50.796875 41.98828125 C51.5084375 42.69984375 51.5084375 42.69984375 52.234375 43.42578125 C54.48650393 45.67791018 56.0474397 48.3359116 57.796875 50.98828125 C58.456875 51.64828125 59.116875 52.30828125 59.796875 52.98828125 C61.89828154 56.30047051 63.82168747 59.71261237 65.74658203 63.12988281 C66.45471582 64.38286152 67.16939376 65.63216137 67.89013672 66.87792969 C80.21185261 88.25988857 88.20664098 114.1767071 88.796875 138.98828125 C88.466875 139.64828125 88.136875 140.30828125 87.796875 140.98828125 C89.03050781 141.10042969 89.03050781 141.10042969 90.2890625 141.21484375 C100.86440917 142.46043885 108.84647659 146.0481654 116.1953125 153.8671875 C122.80129858 162.61609102 124.94888747 171.20717129 124.94213867 181.97802734 C124.94717659 183.14512489 124.94717659 183.14512489 124.95231628 184.33580017 C124.96177416 186.89445617 124.96376674 189.45304638 124.96484375 192.01171875 C124.96805975 193.80001858 124.97142408 195.58831815 124.97492981 197.37661743 C124.98090804 201.12055064 124.98277104 204.8644608 124.98217773 208.60839844 C124.98207615 213.39193937 124.9957305 218.17533176 125.01294994 222.95883751 C125.02409975 226.65128246 125.02609603 230.34369183 125.02556801 234.03615189 C125.02674354 235.79909401 125.03114125 237.56203718 125.03890038 239.32496262 C125.04876131 241.79666131 125.04579842 244.26804164 125.03979492 246.73974609 C125.04541443 247.45896744 125.05103394 248.17818878 125.05682373 248.91920471 C124.99709036 258.65818165 121.98174816 268.14555867 115.3828125 275.484375 C103.17411347 287.0615896 90.04446339 288.5162505 73.93359375 288.12890625 C72.55459429 288.08485856 71.17564072 288.03912214 69.796875 287.98828125 C69.466875 288.64828125 69.136875 289.30828125 68.796875 289.98828125 C68.796875 289.32828125 68.796875 288.66828125 68.796875 287.98828125 C68.136875 287.98828125 67.476875 287.98828125 66.796875 287.98828125 C66.796875 288.64828125 66.796875 289.30828125 66.796875 289.98828125 C66.136875 290.31828125 65.476875 290.64828125 64.796875 290.98828125 C63.70542825 293.10922777 62.67381931 295.26111552 61.671875 297.42578125 C58.87440497 303.30551627 55.6035685 308.16618852 51.30078125 313.09765625 C49.58936714 314.84651123 49.58936714 314.84651123 49.796875 316.98828125 C48.22265625 318.5390625 48.22265625 318.5390625 46.109375 320.30078125 C43.76948472 322.28886984 41.53245974 324.25269651 39.359375 326.42578125 C25.59100969 340.19414656 7.84413745 351.18698126 -11.203125 355.98828125 C-12.193125 355.98828125 -13.183125 355.98828125 -14.203125 355.98828125 C-14.533125 356.64828125 -14.863125 357.30828125 -15.203125 357.98828125 C-20.31309683 359.71801332 -25.52085035 360.69435384 -30.828125 361.61328125 C-31.56546875 361.74734375 -32.3028125 361.88140625 -33.0625 362.01953125 C-36.82309363 362.67999393 -40.36764096 363.15504143 -44.203125 362.98828125 C-44.31527344 363.59414063 -44.42742187 364.2 -44.54296875 364.82421875 C-46.58843802 373.51412087 -51.31539637 379.83117061 -58.83984375 384.69140625 C-69.820371 390.40325002 -84.94049034 391.07771621 -96.890625 387.86328125 C-106.26908037 384.28031503 -112.28259715 378.71103517 -117.203125 369.98828125 C-120.90962647 361.12490816 -119.8739309 352.16770507 -116.3515625 343.44921875 C-114.88543116 340.30750874 -113.38860815 337.68371047 -111.203125 334.98828125 C-110.543125 334.98828125 -109.883125 334.98828125 -109.203125 334.98828125 C-109.203125 334.32828125 -109.203125 333.66828125 -109.203125 332.98828125 C-107.91962721 332.20392149 -106.62561756 331.43676737 -105.328125 330.67578125 C-104.24917969 330.03189453 -104.24917969 330.03189453 -103.1484375 329.375 C-95.13559412 325.6023748 -88.000943 324.52710161 -79.203125 325.05078125 C-77.82253906 325.09235352 -77.82253906 325.09235352 -76.4140625 325.13476562 C-66.81021437 325.61495803 -58.93571154 328.50337203 -51.8984375 335.11328125 C-49.15824764 338.14390598 -46.203125 341.7478933 -46.203125 345.98828125 C-19.2279911 339.26293781 4.41198512 331.44421757 25.796875 312.98828125 C26.70179688 312.28316406 27.60671875 311.57804687 28.5390625 310.8515625 C30.86611845 309.1874585 30.86611845 309.1874585 31.796875 306.98828125 C32.456875 306.98828125 33.116875 306.98828125 33.796875 306.98828125 C34.456875 305.33828125 35.116875 303.68828125 35.796875 301.98828125 C36.456875 301.98828125 37.116875 301.98828125 37.796875 301.98828125 C38.02375 301.34890625 38.250625 300.70953125 38.484375 300.05078125 C39.64600552 297.34031003 40.93791602 294.86458457 42.37890625 292.296875 C43.05723511 291.08535767 43.05723511 291.08535767 43.74926758 289.84936523 C44.09497803 289.23520752 44.44068848 288.6210498 44.796875 287.98828125 C44.12108398 287.99875488 43.44529297 288.00922852 42.74902344 288.02001953 C39.68167858 288.06164101 36.61439322 288.08762698 33.546875 288.11328125 C32.48339844 288.13003906 31.41992188 288.14679688 30.32421875 288.1640625 C29.29941406 288.17050781 28.27460938 288.17695313 27.21875 288.18359375 C26.27612305 288.19406738 25.33349609 288.20454102 24.36230469 288.21533203 C21.6313542 287.973632 20.07766469 287.48906332 17.796875 285.98828125 C15.55658518 282.62784652 15.53432836 281.47704775 15.4914856 277.54277039 C15.46606941 275.84572464 15.46606941 275.84572464 15.44013977 274.11439514 C15.4316954 272.87225754 15.42325104 271.63011993 15.41455078 270.3503418 C15.38984459 268.38904327 15.38984459 268.38904327 15.36463928 266.38812256 C15.32018988 262.7992234 15.28861673 259.2103212 15.26043177 255.62126136 C15.24221499 253.37838463 15.22120463 251.13555215 15.19918442 248.89270973 C15.12237527 241.06630973 15.05589737 233.23989973 14.99902344 225.41333008 C14.94576569 218.12123059 14.87011591 210.82959673 14.78394139 203.53781861 C14.71091566 197.27538891 14.65351556 191.01294146 14.60821331 184.75025016 C14.58090176 181.01079315 14.54731705 177.2716528 14.49802017 173.53241539 C14.44365341 169.35970436 14.42176743 165.18742651 14.40283203 161.0144043 C14.38224228 159.77833939 14.36165253 158.54227448 14.34043884 157.26875305 C14.34029843 150.91171831 14.35890247 146.74367088 18.796875 141.98828125 C22.70172268 139.62482081 25.43197337 139.97318785 29.796875 140.98828125 C31.06477624 135.7343637 30.44941774 131.75500005 29.234375 126.61328125 C29.05165039 125.82671143 28.86892578 125.0401416 28.68066406 124.22973633 C23.50319498 102.91011673 12.65830049 85.61932762 -2.015625 69.36328125 C-2.47171143 68.854021 -2.92779785 68.34476074 -3.39770508 67.82006836 C-5.83019523 65.18856851 -7.96152367 63.46976781 -11.203125 61.98828125 C-11.66074219 61.529375 -12.11835938 61.07046875 -12.58984375 60.59765625 C-29.51593065 43.71255261 -58.76079908 36.92489668 -81.765625 36.73828125 C-107.12656899 36.91662029 -137.04193632 46.21808907 -155.625 64.3515625 C-156.14578125 64.89167969 -156.6665625 65.43179688 -157.203125 65.98828125 C-157.863125 65.98828125 -158.523125 65.98828125 -159.203125 65.98828125 C-159.5434375 66.82359375 -159.5434375 66.82359375 -159.890625 67.67578125 C-161.203125 69.98828125 -161.203125 69.98828125 -163.51953125 72.30078125 C-179.80255532 88.60750695 -194.203125 116.42945319 -194.203125 139.98828125 C-193.130625 140.19453125 -192.058125 140.40078125 -190.953125 140.61328125 C-187.36119697 141.93032153 -185.9588742 142.69080461 -183.99258804 145.90397453 C-182.18425337 150.67826276 -182.68723704 155.95219501 -182.74560547 160.98266602 C-182.74513718 162.29224274 -182.74466888 163.60181946 -182.7441864 164.95108032 C-182.74414541 168.53178668 -182.76984191 172.1118678 -182.80188894 175.69241452 C-182.8265287 178.68455495 -182.83906011 181.67669847 -182.85178196 184.66890949 C-182.88219568 191.72763946 -182.93401651 198.78599282 -182.99902344 205.84448242 C-183.06566086 213.12227445 -183.0955375 220.39956856 -183.10747802 227.67763859 C-183.1190722 233.93277329 -183.15375926 240.18749219 -183.20687973 246.44241184 C-183.23833269 250.17557642 -183.2609826 253.90826439 -183.26128769 257.64157295 C-183.26279035 261.80290216 -183.31243733 265.96231549 -183.36669922 270.12329102 C-183.36076248 271.35823807 -183.35482574 272.59318512 -183.34870911 273.86555481 C-183.50675146 281.85199469 -183.50675146 281.85199469 -185.35480785 284.86750507 C-188.85662225 288.15649278 -192.38433266 288.61559128 -197.01196289 288.61938477 C-197.99144897 288.63011772 -197.99144897 288.63011772 -198.99072266 288.6410675 C-201.13646824 288.65788811 -203.28010232 288.63858015 -205.42578125 288.6171875 C-206.93306143 288.61801753 -208.44034151 288.62048196 -209.94761658 288.62449646 C-213.10589885 288.62735083 -216.26347068 288.61270242 -219.42163086 288.58520508 C-223.43377683 288.55132725 -227.44463623 288.55707467 -231.45684147 288.57586765 C-234.57226407 288.5865403 -237.68739761 288.57740462 -240.8027935 288.56248283 C-242.27968926 288.55736141 -243.75661604 288.5577079 -245.23350716 288.56402779 C-254.8420004 288.58968755 -263.15040675 287.34576626 -272.203125 283.98828125 C-273.193125 283.65828125 -274.183125 283.32828125 -275.203125 282.98828125 C-275.203125 282.32828125 -275.203125 281.66828125 -275.203125 280.98828125 C-276.0384375 280.64796875 -276.0384375 280.64796875 -276.890625 280.30078125 C-284.80870128 275.80673796 -290.20181603 267.42313789 -292.66015625 258.87109375 C-294.35078816 249.89493298 -294.36317342 240.86358026 -294.37109375 231.7578125 C-294.37431832 230.39556343 -294.37768323 229.03331468 -294.38117981 227.67106628 C-294.3871309 224.82782185 -294.38902395 221.98460763 -294.38842773 219.14135742 C-294.3883265 215.54237975 -294.40195712 211.94360104 -294.41919994 208.3446703 C-294.43045649 205.5329453 -294.43234279 202.72126629 -294.43181801 199.9095211 C-294.43353325 197.95185752 -294.4442855 195.99420828 -294.45536804 194.03657532 C-294.41524896 178.02485763 -293.34574146 163.20212669 -281.828125 150.98828125 C-277.94368276 147.37803493 -274.13748678 144.8942579 -269.203125 142.98828125 C-268.275 142.59640625 -267.346875 142.20453125 -266.390625 141.80078125 C-263.367663 141.03022231 -260.6056498 140.70035962 -257.50390625 140.4375 C-256.51173096 140.35201904 -255.51955566 140.26653809 -254.49731445 140.1784668 C-253.74023193 140.11570557 -252.98314941 140.05294434 -252.203125 139.98828125 C-252.13843018 139.36074951 -252.07373535 138.73321777 -252.00708008 138.08666992 C-248.57476817 105.74044464 -239.68043761 76.67549686 -219.98046875 50.421875 C-218.36265056 48.20670856 -216.9220349 45.96606043 -215.515625 43.61328125 C-213.46872006 40.24512998 -211.0695789 37.71141245 -208.203125 34.98828125 C-207.44 34.03953125 -206.676875 33.09078125 -205.890625 32.11328125 C-202.74593966 28.26868162 -198.98675946 25.1831908 -195.203125 21.98828125 C-193.93225065 20.88416179 -192.66141472 19.77999811 -191.390625 18.67578125 C-189.36953681 16.92353139 -187.44761844 15.48461021 -185.203125 13.98828125 C-182.75519076 12.2776766 -180.31318701 10.55877451 -177.87109375 8.83984375 C-163.59284933 -1.06921607 -148.67549094 -8.04716612 -132.15649414 -13.35742188 C-130.60865805 -13.87588216 -129.08849233 -14.47684117 -127.58203125 -15.10546875 C-90.12109748 -29.37630066 -32.95737965 -22.3451034 0 0 Z M-119.390625 2.11328125 C-120.57628052 2.42869873 -120.57628052 2.42869873 -121.78588867 2.75048828 C-130.94500448 5.31051769 -139.58301529 9.00739986 -148.203125 12.98828125 C-148.88342773 13.30087891 -149.56373047 13.61347656 -150.26464844 13.93554688 C-157.46930829 17.28505026 -164.07255998 20.90439806 -170.203125 25.98828125 C-171.40195313 26.931875 -171.40195313 26.931875 -172.625 27.89453125 C-176.75203269 31.14613276 -180.82441553 34.46083557 -184.828125 37.86328125 C-185.80652344 38.69472656 -185.80652344 38.69472656 -186.8046875 39.54296875 C-188.43491057 40.89265149 -188.43491057 40.89265149 -188.203125 42.98828125 C-188.8425 43.23578125 -189.481875 43.48328125 -190.140625 43.73828125 C-192.39947614 44.7764132 -192.39947614 44.7764132 -192.703125 46.98828125 C-192.950625 47.97828125 -192.950625 47.97828125 -193.203125 48.98828125 C-194.53645833 49.65494792 -195.86979167 50.32161458 -197.203125 50.98828125 C-218.22646029 68.45121298 -230.71881919 106.43958036 -233.203125 132.98828125 C-233.44274846 137.14408872 -233.44274846 137.14408872 -232.203125 140.98828125 C-225.933125 140.98828125 -219.663125 140.98828125 -213.203125 140.98828125 C-211.74997836 136.38295736 -211.74997836 136.38295736 -213.203125 133.98828125 C-212.543125 133.98828125 -211.883125 133.98828125 -211.203125 133.98828125 C-211.17734375 133.45203125 -211.1515625 132.91578125 -211.125 132.36328125 C-208.9491049 102.29636709 -193.22242073 73.65383684 -170.765625 53.98828125 C-170.13398438 53.46105469 -169.50234375 52.93382812 -168.8515625 52.390625 C-167.02485838 50.88710978 -167.02485838 50.88710978 -164.890625 48.55078125 C-159.9562095 43.84587345 -154.28660043 39.74179613 -148.359375 36.37109375 C-147.29203125 35.68660156 -147.29203125 35.68660156 -146.203125 34.98828125 C-146.203125 34.32828125 -146.203125 33.66828125 -146.203125 32.98828125 C-145.40519531 32.90191406 -144.60726562 32.81554687 -143.78515625 32.7265625 C-139.19756393 31.7810282 -135.18604884 30.00729479 -130.890625 28.17578125 C-110.51520328 19.8068061 -89.14125383 16.49531206 -67.203125 18.98828125 C-66.48833984 19.06675293 -65.77355469 19.14522461 -65.03710938 19.22607422 C-43.09817064 21.80971148 -22.66351717 30.20698485 -4.84765625 43.16796875 C-2.27660427 45.11790671 -2.27660427 45.11790671 0.796875 45.98828125 C0.796875 46.64828125 0.796875 47.30828125 0.796875 47.98828125 C2.45405137 49.39884085 2.45405137 49.39884085 4.546875 50.80078125 C7.91295189 53.23216543 10.26923088 55.67619585 12.796875 58.98828125 C13.55097656 59.55804688 14.30507813 60.1278125 15.08203125 60.71484375 C34.63165165 77.08589278 43.72440403 105.87116595 47.796875 129.98828125 C48.16418171 131.94807211 48.53826915 133.90661546 48.921875 135.86328125 C49.06882812 136.64445313 49.21578125 137.425625 49.3671875 138.23046875 C49.6395836 140.00398256 49.6395836 140.00398256 50.796875 140.98828125 C52.21257623 141.07479736 53.63247 141.09533029 55.05078125 141.0859375 C56.33178711 141.08110352 56.33178711 141.08110352 57.63867188 141.07617188 C58.53650391 141.06779297 59.43433594 141.05941406 60.359375 141.05078125 C61.26107422 141.04626953 62.16277344 141.04175781 63.09179688 141.03710938 C65.32688814 141.0252835 67.56184937 141.00880345 69.796875 140.98828125 C69.796875 139.99828125 69.796875 139.00828125 69.796875 137.98828125 C69.81645264 137.34777832 69.83603027 136.70727539 69.85620117 136.04736328 C69.97510614 130.43932698 69.32521072 125.32941428 68.109375 119.86328125 C67.83601318 118.62070557 67.83601318 118.62070557 67.55712891 117.35302734 C61.17304454 89.27062405 47.63013513 63.93745947 27.33642578 43.55126953 C26.05118295 42.24646068 24.80718623 40.90118902 23.57421875 39.546875 C1.51110917 15.72924379 -34.01707819 0.54106626 -66.203125 -2.01171875 C-71.07873069 -2.17865866 -75.94998483 -2.19680144 -80.828125 -2.19921875 C-82.10558594 -2.21146484 -83.38304687 -2.22371094 -84.69921875 -2.23632812 C-96.50831827 -2.25427508 -107.97260102 -0.9358136 -119.390625 2.11328125 Z M-269.2265625 164.91796875 C-269.67257812 165.55992187 -270.11859375 166.201875 -270.578125 166.86328125 C-271.03960937 167.50007812 -271.50109375 168.136875 -271.9765625 168.79296875 C-274.84696134 173.93043418 -275.45703668 178.5964078 -275.4777832 184.42724609 C-275.48289413 185.1467897 -275.48800507 185.86633331 -275.49327087 186.60768127 C-275.50709992 188.9716132 -275.50621505 191.33525133 -275.50390625 193.69921875 C-275.50779714 195.35299791 -275.51213261 197.00677608 -275.51689148 198.66055298 C-275.52433952 202.12204227 -275.52407291 205.58342954 -275.51879883 209.04492188 C-275.51300906 213.46535961 -275.52993001 217.88537768 -275.5531435 222.30574608 C-275.56792669 225.72026991 -275.56874627 229.13469376 -275.56563377 232.54924393 C-275.56614478 234.17821712 -275.57134085 235.80719623 -275.58144569 237.43613815 C-275.92868548 251.04743471 -275.92868548 251.04743471 -269.765625 262.80078125 C-264.24804534 267.51091022 -261.10581315 269.12662952 -253.78125 269.0859375 C-252.75644531 269.08271484 -251.73164063 269.07949219 -250.67578125 269.07617188 C-249.08056641 269.06360352 -249.08056641 269.06360352 -247.453125 269.05078125 C-246.37417969 269.04626953 -245.29523438 269.04175781 -244.18359375 269.03710938 C-241.52338117 269.02533852 -238.86328135 269.00889524 -236.203125 268.98828125 C-236.17978454 254.94137541 -236.16220661 240.89447258 -236.15131283 226.84755135 C-236.14608542 220.32560683 -236.13899032 213.80367531 -236.12768555 207.28173828 C-236.11685166 200.99238837 -236.11084709 194.70305099 -236.10824776 188.41369247 C-236.10639442 186.00942665 -236.10277554 183.60516155 -236.09739494 181.20090103 C-236.0901779 177.84371691 -236.08913434 174.48658511 -236.08959961 171.12939453 C-236.0842067 169.62536072 -236.0842067 169.62536072 -236.07870483 168.09094238 C-236.0800795 167.17946442 -236.08145416 166.26798645 -236.08287048 165.32888794 C-236.08194869 164.53430239 -236.0810269 163.73971684 -236.08007717 162.92105293 C-236.08245126 160.90506011 -236.08245126 160.90506011 -237.203125 158.98828125 C-240.70283699 158.87090185 -244.20203455 158.80064164 -247.703125 158.73828125 C-248.68539062 158.70476562 -249.66765625 158.67125 -250.6796875 158.63671875 C-258.16724691 158.53688462 -263.70080005 159.64822618 -269.2265625 164.91796875 Z M-218.203125 158.98828125 C-218.203125 195.28828125 -218.203125 231.58828125 -218.203125 268.98828125 C-213.253125 268.98828125 -208.303125 268.98828125 -203.203125 268.98828125 C-202.00337117 268.00784304 -202.00337117 268.00784304 -202.08007717 266.16294003 C-202.08099896 265.36005834 -202.08192076 264.55717665 -202.08287048 263.72996521 C-202.08149582 262.81144775 -202.08012115 261.8929303 -202.07870483 260.94657898 C-202.08230011 259.93094376 -202.08589539 258.91530853 -202.08959961 257.86889648 C-202.08945358 256.80561127 -202.08930756 255.74232605 -202.0891571 254.64682007 C-202.08985675 251.11348467 -202.09765157 247.58020125 -202.10546875 244.046875 C-202.10733275 241.60449757 -202.10875673 239.16211976 -202.10975647 236.71974182 C-202.11358311 230.27693661 -202.12341463 223.83415377 -202.13446045 217.39135742 C-202.14467144 210.82275699 -202.14925342 204.25415295 -202.15429688 197.68554688 C-202.16503677 184.78644848 -202.18211493 171.88736672 -202.203125 158.98828125 C-207.483125 158.98828125 -212.763125 158.98828125 -218.203125 158.98828125 Z M33.796875 158.98828125 C33.796875 195.28828125 33.796875 231.58828125 33.796875 268.98828125 C39.076875 268.98828125 44.356875 268.98828125 49.796875 268.98828125 C49.796875 232.68828125 49.796875 196.38828125 49.796875 158.98828125 C44.516875 158.98828125 39.236875 158.98828125 33.796875 158.98828125 Z M67.796875 158.98828125 C67.796875 195.28828125 67.796875 231.58828125 67.796875 268.98828125 C85.41635085 270.63183496 85.41635085 270.63183496 99.94140625 264.15625 C100.49183594 263.50269531 101.04226563 262.84914063 101.609375 262.17578125 C102.17269531 261.52996094 102.73601562 260.88414062 103.31640625 260.21875 C106.62107502 255.23994824 107.05550607 250.35520306 107.10327148 244.48925781 C107.111595 243.76317322 107.11991852 243.03708862 107.12849426 242.28900146 C107.15247525 239.90224754 107.1613524 237.51576766 107.16796875 235.12890625 C107.17694537 233.45749841 107.18606739 231.78609135 107.19532776 230.11468506 C107.21178888 226.61452285 107.21951239 223.11445595 107.22241211 219.61425781 C107.22778758 215.15119387 107.26544481 210.68903855 107.31115627 206.22623062 C107.34104975 202.77387301 107.34813834 199.32173079 107.34913826 195.86925507 C107.35331758 194.22515459 107.36565896 192.58105209 107.38665581 190.93708038 C107.49305171 181.88514492 107.57878927 173.52036657 101.796875 165.98828125 C90.98240866 155.96232488 85.34723583 158.98828125 67.796875 158.98828125 Z M-99.140625 349.73828125 C-101.31756045 354.34826221 -100.68130669 358.60686749 -99.078125 363.23828125 C-96.74135726 366.6655406 -94.88458653 368.03686066 -91.203125 369.98828125 C-87.85410969 370.55547066 -84.59270613 370.54809739 -81.203125 370.48828125 C-79.88828125 370.51148438 -79.88828125 370.51148438 -78.546875 370.53515625 C-72.9477753 370.50142673 -69.60760013 369.75862224 -65.203125 365.98828125 C-62.1550299 361.76027837 -61.67347513 358.21047131 -62.421875 353.17578125 C-63.81235384 349.28244049 -66.75404763 347.0968875 -70.203125 344.98828125 C-73.96894712 343.73300721 -77.52756826 343.7261089 -81.453125 343.67578125 C-82.19175781 343.64677734 -82.93039063 343.61777344 -83.69140625 343.58789062 C-90.15412661 343.513803 -94.2788639 345.34701316 -99.140625 349.73828125 Z " fill="#0C0C0C" transform="translate(334.203125,66.01171875)"/>
<path d="" fill="#7F7F7F" transform="translate(0,0)"/>
<path d="" fill="#000000" transform="translate(0,0)"/>
<path d="" fill="#000000" transform="translate(0,0)"/>
<path d="" fill="#000000" transform="translate(0,0)"/>
<path d="" fill="#FFFFFF" transform="translate(0,0)"/>
<path d="" fill="#000000" transform="translate(0,0)"/>
</svg>
