<svg width="261" height="190" viewBox="0 0 261 190" fill="none" xmlns="http://www.w3.org/2000/svg">
<path fill-rule="evenodd" clip-rule="evenodd" d="M168 0H192V44H196V67H244V111H261V178H244H216H196H190H142H89H88H36H35H0V104H35V61H48V41H56V21H68V41H76V61H89V80H142V44H168V0Z" fill="#DCE3E9" fill-opacity="0.5"/>
<path d="M95.9958 85.0042C115.323 65.6767 146.66 65.6767 165.987 85.0042C185.315 104.332 185.315 135.668 165.987 154.996L130.991 189.991L95.9958 154.996C76.6682 135.668 76.6682 104.332 95.9958 85.0042Z" fill="#FF9D0A"/>
<path d="M91.4915 118.991C91.4915 98.5568 108.057 81.9913 128.491 81.9913" stroke="#FFC700" stroke-width="4" stroke-linecap="round"/>
<circle cx="130.991" cy="120.991" r="20.5" fill="white"/>
</svg>
