<?xml version="1.0" encoding="UTF-8"?>
<svg version="1.1" xmlns="http://www.w3.org/2000/svg" width="300" height="300">
<path d="M0 0 C4.52971112 3.64997384 7.86159879 8.3564029 10.75 13.375 C10.75 14.035 10.75 14.695 10.75 15.375 C11.69875 14.4675 12.6475 13.56 13.625 12.625 C21.13589211 6.29846014 28.69108272 4.66940527 38.41796875 4.99609375 C46.84100026 5.95392969 53.05251066 10.23824844 58.75 16.375 C61.94345466 20.64873309 63.49578928 25.25363956 64.75 30.375 C65.58917969 30.13523437 65.58917969 30.13523437 66.4453125 29.890625 C71.67262923 28.72112363 76.91392656 28.77474522 82 30.4375 C86.41854291 33.55056432 90.02390999 37.19672996 91.75 42.375 C92.28385142 48.33976294 92.30270149 53.33245595 88.75 58.375 C81.97285033 65.18419293 81.97285033 65.18419293 76.71882629 65.49525452 C75.94383286 65.49303391 75.16883942 65.49081329 74.37036133 65.48852539 C73.48967484 65.48844986 72.60898834 65.48837433 71.70161438 65.48829651 C70.75465195 65.48313522 69.80768951 65.47797394 68.83203125 65.47265625 C67.85965012 65.4712413 66.88726898 65.46982635 65.88542175 65.46836853 C62.77774996 65.46276817 59.67015004 65.45021562 56.5625 65.4375 C54.45638125 65.43248505 52.35026137 65.42792213 50.24414062 65.42382812 C45.07939936 65.41279862 39.91471187 65.39553375 34.75 65.375 C34.66238403 63.62340576 34.66238403 63.62340576 34.57299805 61.83642578 C34.49030884 60.28937532 34.40736921 58.74233824 34.32421875 57.1953125 C34.28647339 56.42743408 34.24872803 55.65955566 34.20983887 54.8684082 C33.73083783 46.16227227 32.14080723 40.14948043 25.95703125 33.78515625 C24.75 32.375 24.75 32.375 24.75 30.375 C24.069375 30.106875 23.38875 29.83875 22.6875 29.5625 C20.48858058 28.67357513 18.30308083 27.75132795 16.125 26.8125 C8.17494548 23.42636567 1.68418357 23.32554838 -6.4375 26.4375 C-15.18263054 30.4737141 -19.81885533 35.64985902 -23.23413086 44.68383789 C-24.40732573 48.94664329 -24.70880803 52.89204917 -24.8828125 57.2890625 C-24.92092041 58.06999268 -24.95902832 58.85092285 -24.99829102 59.65551758 C-25.0901701 61.56164398 -25.17121024 63.4682877 -25.25 65.375 C-30.96082747 65.44943429 -36.6713694 65.50373634 -42.38256836 65.53979492 C-44.32337364 65.55483491 -46.2641452 65.57527214 -48.20483398 65.60131836 C-51.00252632 65.63791295 -53.79976733 65.65477448 -56.59765625 65.66796875 C-57.4583522 65.68345261 -58.31904816 65.69893646 -59.20582581 65.71488953 C-66.01434395 65.71677021 -70.76176172 64.58048393 -76 59.9375 C-81.50091909 53.67256437 -82.64171917 49.53350869 -82.51953125 41.19140625 C-82.01232379 35.89145583 -80.22623725 32.19616028 -76.30859375 28.5859375 C-71.77660302 25.06383789 -68.40243816 23.22786322 -62.5625 23.3125 C-61.35013672 23.32603516 -61.35013672 23.32603516 -60.11328125 23.33984375 C-59.49839844 23.35144531 -58.88351563 23.36304688 -58.25 23.375 C-58.04375 22.26125 -57.8375 21.1475 -57.625 20 C-55.0975387 10.08322477 -48.82384731 2.29540348 -40.1015625 -2.90625 C-27.2250263 -9.60779301 -11.93274027 -8.03121334 0 0 Z M-43.25 8.375 C-47.20943449 12.69673569 -49.94751459 16.32529177 -50.25 22.375 C-48.93 22.705 -47.61 23.035 -46.25 23.375 C-45.97027344 22.79492188 -45.69054687 22.21484375 -45.40234375 21.6171875 C-41.62464503 14.25614112 -37.29074488 9.01612058 -29.25 6.375 C-27.1540014 6.09623482 -25.04737389 5.88911256 -22.9375 5.75 C-21.86886719 5.67523438 -20.80023438 5.60046875 -19.69921875 5.5234375 C-18.48685547 5.44996094 -18.48685547 5.44996094 -17.25 5.375 C-16.92 3.725 -16.59 2.075 -16.25 0.375 C-26.90302218 -1.51505232 -35.34418649 0.8416231 -43.25 8.375 Z " fill="#000000" transform="translate(145.25,129.625)"/>
<path d="M0 0 C6.40499826 3.62469355 10.34154271 9.06323665 12.625 16 C12.80145223 18.65635972 12.88225675 21.20248065 12.85546875 23.85546875 C12.85501053 24.59831619 12.85455231 25.34116364 12.8540802 26.10652161 C12.85107089 27.66893115 12.84322433 29.23133805 12.83081055 30.79370117 C12.8124805 33.19004885 12.81030157 35.58601119 12.81054688 37.98242188 C12.80563385 39.50260752 12.79980647 41.02279054 12.79296875 42.54296875 C12.79185593 43.2606694 12.7907431 43.97837006 12.78959656 44.71781921 C12.74110577 49.76778846 12.74110577 49.76778846 11.625 52 C10.965 52 10.305 52 9.625 52 C9.625 52.66 9.625 53.32 9.625 54 C3 54.125 3 54.125 -0.375 53 C0.13268319 48.5577721 1.78321768 46.3746165 4.625 43 C5.57668683 40.14493951 5.8150946 38.09062718 5.94140625 35.11328125 C6.00424805 33.7065918 6.00424805 33.7065918 6.06835938 32.27148438 C6.10767578 31.29501953 6.14699219 30.31855469 6.1875 29.3125 C6.25227539 27.83040039 6.25227539 27.83040039 6.31835938 26.31835938 C6.42441654 23.87904454 6.52647714 21.43962887 6.625 19 C5.54734375 19.03480469 4.4696875 19.06960937 3.359375 19.10546875 C-1.65472034 18.96385727 -3.32808937 17.87953257 -7.375 15 C-9.1875 12.25 -9.1875 12.25 -10.375 10 C-11.035 10 -11.695 10 -12.375 10 C-12.973125 10.928125 -13.57125 11.85625 -14.1875 12.8125 C-16.47239401 16.14191698 -17.67481667 17.48628864 -21.375 19 C-23.39355469 19.10986328 -23.39355469 19.10986328 -25.546875 19.0703125 C-26.81015625 19.04710937 -28.0734375 19.02390625 -29.375 19 C-29.29359225 22.37594805 -29.18079799 25.75015913 -29.0625 29.125 C-29.03994141 30.07632813 -29.01738281 31.02765625 -28.99414062 32.0078125 C-28.76220914 38.08020049 -28.30502998 43.17848964 -23.6875 47.625 C-22.375 49 -22.375 49 -22.375 53 C-23.78654099 53.27748242 -25.20479799 53.52093516 -26.625 53.75 C-27.41390625 53.88921875 -28.2028125 54.0284375 -29.015625 54.171875 C-31.375 54 -31.375 54 -33.48925781 52.45874023 C-35.98978643 49.19840573 -35.95225658 46.43629252 -35.90625 42.48828125 C-35.9100769 41.76062057 -35.91390381 41.0329599 -35.91784668 40.2832489 C-35.92056427 38.74423845 -35.91321354 37.20518169 -35.89648438 35.66625977 C-35.87522339 33.33697365 -35.89620632 31.0108262 -35.921875 28.68164062 C-35.9348407 20.63415777 -35.4866576 14.13829444 -31.375 7 C-30.715 7 -30.055 7 -29.375 7 C-29.01535156 6.09507812 -29.01535156 6.09507812 -28.6484375 5.171875 C-23.1421613 -4.21919729 -8.70875537 -3.84440552 0 0 Z " fill="#010101" transform="translate(161.375,161)"/>
<path d="M0 0 C6.2039887 3.18019589 10.15035528 7.41981585 12.38671875 14.12890625 C12.8856221 20.77775285 13.16321936 26.46415534 9.38671875 32.12890625 C7.38671875 32.12890625 7.38671875 32.12890625 4.88671875 29.81640625 C2.38671875 27.12890625 2.38671875 27.12890625 0.38671875 24.12890625 C0.71671875 23.59265625 1.04671875 23.05640625 1.38671875 22.50390625 C2.68289062 19.42549806 2.78545878 17.45173987 2.38671875 14.12890625 C0.73648866 11.06419323 -0.66935725 8.82111718 -3.48828125 6.75390625 C-7.9797181 5.43289541 -10.71472821 5.64507 -14.86328125 7.87890625 C-18.0768691 10.48533766 -18.0768691 10.48533766 -19.61328125 14.12890625 C-20.00150236 18.59344902 -19.20110884 21.96085883 -17.61328125 26.12890625 C-21.36328125 29.12890625 -21.36328125 29.12890625 -23.61328125 29.12890625 C-23.94328125 30.11890625 -24.27328125 31.10890625 -24.61328125 32.12890625 C-25.27328125 32.12890625 -25.93328125 32.12890625 -26.61328125 32.12890625 C-30.09274281 25.60491582 -30.96596184 19.08022767 -28.9921875 11.85546875 C-26.63702326 6.3914877 -22.66374203 3.12599694 -17.61328125 0.12890625 C-11.98177459 -1.74826264 -5.65489494 -1.88496498 0 0 Z " fill="#010101" transform="translate(158.61328125,63.87109375)"/>
<path d="M0 0 C6.2039887 3.18019589 10.15035528 7.41981585 12.38671875 14.12890625 C12.8856221 20.77775285 13.16321936 26.46415534 9.38671875 32.12890625 C7.38671875 32.12890625 7.38671875 32.12890625 4.88671875 29.81640625 C2.38671875 27.12890625 2.38671875 27.12890625 0.38671875 24.12890625 C0.71671875 23.59265625 1.04671875 23.05640625 1.38671875 22.50390625 C2.68289062 19.42549806 2.78545878 17.45173987 2.38671875 14.12890625 C0.73648866 11.06419323 -0.66935725 8.82111718 -3.48828125 6.75390625 C-7.9797181 5.43289541 -10.71472821 5.64507 -14.86328125 7.87890625 C-18.0768691 10.48533766 -18.0768691 10.48533766 -19.61328125 14.12890625 C-20.00150236 18.59344902 -19.20110884 21.96085883 -17.61328125 26.12890625 C-21.36328125 29.12890625 -21.36328125 29.12890625 -23.61328125 29.12890625 C-23.94328125 30.11890625 -24.27328125 31.10890625 -24.61328125 32.12890625 C-25.27328125 32.12890625 -25.93328125 32.12890625 -26.61328125 32.12890625 C-30.09274281 25.60491582 -30.96596184 19.08022767 -28.9921875 11.85546875 C-26.63702326 6.3914877 -22.66374203 3.12599694 -17.61328125 0.12890625 C-11.98177459 -1.74826264 -5.65489494 -1.88496498 0 0 Z " fill="#010101" transform="translate(224.61328125,75.87109375)"/>
<path d="M0 0 C6.2039887 3.18019589 10.15035528 7.41981585 12.38671875 14.12890625 C12.8856221 20.77775285 13.16321936 26.46415534 9.38671875 32.12890625 C7.38671875 32.12890625 7.38671875 32.12890625 4.88671875 29.81640625 C2.38671875 27.12890625 2.38671875 27.12890625 0.38671875 24.12890625 C0.71671875 23.59265625 1.04671875 23.05640625 1.38671875 22.50390625 C2.68289062 19.42549806 2.78545878 17.45173987 2.38671875 14.12890625 C0.73648866 11.06419323 -0.66935725 8.82111718 -3.48828125 6.75390625 C-7.9797181 5.43289541 -10.71472821 5.64507 -14.86328125 7.87890625 C-18.0768691 10.48533766 -18.0768691 10.48533766 -19.61328125 14.12890625 C-20.00150236 18.59344902 -19.20110884 21.96085883 -17.61328125 26.12890625 C-21.36328125 29.12890625 -21.36328125 29.12890625 -23.61328125 29.12890625 C-23.94328125 30.11890625 -24.27328125 31.10890625 -24.61328125 32.12890625 C-25.27328125 32.12890625 -25.93328125 32.12890625 -26.61328125 32.12890625 C-30.09274281 25.60491582 -30.96596184 19.08022767 -28.9921875 11.85546875 C-26.63702326 6.3914877 -22.66374203 3.12599694 -17.61328125 0.12890625 C-11.98177459 -1.74826264 -5.65489494 -1.88496498 0 0 Z " fill="#010101" transform="translate(92.61328125,75.87109375)"/>
<path d="M0 0 C2.96783129 1.45668783 5.86415313 3.01232086 8.75 4.625 C9.54921875 5.07101563 10.3484375 5.51703125 11.171875 5.9765625 C11.77515625 6.31429687 12.3784375 6.65203125 13 7 C13.13559675 9.56428515 13.23433188 12.12135216 13.3125 14.6875 C13.35439453 15.40873047 13.39628906 16.12996094 13.43945312 16.87304688 C13.53124174 20.89338832 13.29121388 22.5831216 10.91796875 25.98046875 C7.35030083 28.44965793 5.31092442 28.67145393 1 28.625 C-0.19625 28.63789063 -1.3925 28.65078125 -2.625 28.6640625 C-7.00093236 27.80305729 -8.4518043 26.64779234 -11 23 C-11.56650963 20.19114615 -11.47806738 17.53780609 -11.3125 14.6875 C-11.28994141 13.94693359 -11.26738281 13.20636719 -11.24414062 12.44335938 C-11.1855815 10.62802643 -11.09590886 8.81374319 -11 7 C-10.37351563 6.66226563 -9.74703125 6.32453125 -9.1015625 5.9765625 C-8.28429687 5.53054687 -7.46703125 5.08453125 -6.625 4.625 C-5.40683594 3.96371094 -5.40683594 3.96371094 -4.1640625 3.2890625 C-1.89185698 2.0556107 -1.89185698 2.0556107 0 0 Z " fill="#010101" transform="translate(149,179)"/>
<path d="M0 0 C0.64715133 2.0829243 1.29267166 4.16635539 1.9375 6.25 C2.29714844 7.41015625 2.65679687 8.5703125 3.02734375 9.765625 C3.74716125 12.15923499 4.39378192 14.5751277 5 17 C-2.59 17 -10.18 17 -18 17 C-17.00782485 11.0469491 -16.43117282 7.87106956 -11.66015625 4.19921875 C-10.80292969 3.70035156 -9.94570312 3.20148438 -9.0625 2.6875 C-8.20785156 2.17574219 -7.35320312 1.66398438 -6.47265625 1.13671875 C-4 0 -4 0 0 0 Z " fill="#010101" transform="translate(138,220)"/>
<path d="M0 0 C6.2379477 0.86879494 9.98490473 2.76100525 14.25 7.5 C16.5993746 10.85624943 18 12.85969381 18 17 C10.41 17 2.82 17 -5 17 C-4.09181323 13.36725293 -3.04593014 9.82558109 -1.9375 6.25 C-1.39416016 4.49429688 -1.39416016 4.49429688 -0.83984375 2.703125 C-0.56269531 1.81109375 -0.28554687 0.9190625 0 0 Z " fill="#010101" transform="translate(162,220)"/>
<path d="M0 0 C3.99924698 1.99962349 6.47255894 3.72316502 8 8 C2.35684128 12.47560864 -2.97548847 12.73490134 -10 12 C-12.9639205 10.93947219 -15.28594404 9.63867529 -18 8 C-14.4545068 0.18678351 -7.9641149 -1.2928758 0 0 Z " fill="#010101" transform="translate(221,105)"/>
<path d="M0 0 C3.99924698 1.99962349 6.47255894 3.72316502 8 8 C2.35684128 12.47560864 -2.97548847 12.73490134 -10 12 C-12.9639205 10.93947219 -15.28594404 9.63867529 -18 8 C-14.4545068 0.18678351 -7.9641149 -1.2928758 0 0 Z " fill="#010101" transform="translate(89,105)"/>
<path d="M0 0 C3.99924698 1.99962349 6.47255894 3.72316502 8 8 C2.11954361 12.18165788 -2.8370826 13.06420487 -10 12 C-12.95074064 10.9236292 -15.29221784 9.63488734 -18 8 C-14.4545068 0.18678351 -7.9641149 -1.2928758 0 0 Z " fill="#010101" transform="translate(155,93)"/>
<path d="M0 0 C1.98 0 3.96 0 6 0 C6 9.9 6 19.8 6 30 C4.35 30.33 2.7 30.66 1 31 C-0.43509221 28.12981559 -0.11158506 25.66456277 -0.09765625 22.4609375 C-0.09443359 21.15898437 -0.09121094 19.85703125 -0.08789062 18.515625 C-0.07953466 17.13541601 -0.07106971 15.75520768 -0.0625 14.375 C-0.05748501 12.98698074 -0.0529221 11.59895978 -0.04882812 10.2109375 C-0.03700976 6.80724868 -0.02053434 3.40364561 0 0 Z " fill="#010101" transform="translate(213,123)"/>
<path d="M0 0 C1.98 0 3.96 0 6 0 C6.738041 16.8929385 6.738041 16.8929385 2 24 C1.34 24 0.68 24 0 24 C0 16.08 0 8.16 0 0 Z " fill="#010101" transform="translate(81,123)"/>
<path d="M0 0 C1.875 1.125 1.875 1.125 3 3 C3.39365568 6.14924548 3.52854531 8.11909116 1.875 10.875 C-0.88090884 12.52854531 -2.85075452 12.39365568 -6 12 C-7.875 10.875 -7.875 10.875 -9 9 C-9.39365568 5.85075452 -9.52854531 3.88090884 -7.875 1.125 C-5.11909116 -0.52854531 -3.14924548 -0.39365568 0 0 Z " fill="#010101" transform="translate(87,87)"/>
<path d="M0 0 C1.875 1.125 1.875 1.125 3 3 C3.39365568 6.14924548 3.52854531 8.11909116 1.875 10.875 C-0.88090884 12.52854531 -2.85075452 12.39365568 -6 12 C-7.875 10.875 -7.875 10.875 -9 9 C-9.39365568 5.85075452 -9.52854531 3.88090884 -7.875 1.125 C-5.11909116 -0.52854531 -3.14924548 -0.39365568 0 0 Z " fill="#020202" transform="translate(219,87)"/>
<path d="M0 0 C1.875 1.125 1.875 1.125 3 3 C3.39365568 6.14924548 3.52854531 8.11909116 1.875 10.875 C-0.88090884 12.52854531 -2.85075452 12.39365568 -6 12 C-7.875 10.875 -7.875 10.875 -9 9 C-9.39365568 5.85075452 -9.52854531 3.88090884 -7.875 1.125 C-5.11909116 -0.52854531 -3.14924548 -0.39365568 0 0 Z " fill="#020202" transform="translate(153,75)"/>
<path d="M0 0 C1.98 0 3.96 0 6 0 C6 5.94 6 11.88 6 18 C1 15 1 15 0 14 C-0.07271741 11.64686445 -0.08370868 9.29166332 -0.0625 6.9375 C-0.05347656 5.64714844 -0.04445312 4.35679688 -0.03515625 3.02734375 C-0.02355469 2.02832031 -0.01195312 1.02929688 0 0 Z " fill="#010101" transform="translate(147,111)"/>
<path d="M0 0 C3.96 0 7.92 0 12 0 C12 1.98 12 3.96 12 6 C8.04 6 4.08 6 0 6 C0 4.02 0 2.04 0 0 Z " fill="#010101" transform="translate(144,213)"/>
<path d="M0 0 C3.3 0 6.6 0 10 0 C9.43454163 3.95820859 8.19097652 6.6659053 6 10 C3 9 3 9 1.3125 6.125 C0 3 0 3 0 0 Z " fill="#010101" transform="translate(145,225)"/>
</svg>
