<?xml version="1.0" encoding="utf-8"?>
<!-- Generator: Adobe Illustrator 23.0.1, SVG Export Plug-In . SVG Version: 6.00 Build 0)  -->
<svg version="1.1" id="Layer_1" xmlns="http://www.w3.org/2000/svg" xmlns:xlink="http://www.w3.org/1999/xlink" x="0px" y="0px"
	 viewBox="0 0 1597 1080" style="enable-background:new 0 0 1597 1080;" xml:space="preserve">
<style type="text/css">
	.st0{fill:#540A2D;}
	.st1{fill:#FFFFFF;}
	.st2{fill:#FFD400;}
</style>
<rect class="st0" width="898" height="1080"/>
<g>
	<g>
		<path class="st1" d="M361.91,601.65c-4.1-3.32-7.78-7.28-10.97-11.79c-8.52-11.9-15.7-22.64-21.36-31.9l-0.66-1.08l1.21-0.39
			c15.43-5.04,22.93-13.3,22.93-25.26c0-9.18-4.2-15.89-12.82-20.49c-8.71-4.65-22.03-7.01-39.59-7.01H264.7
			c1.27,3.23,2.27,8.79,3.03,16.87c0.85,9.25,1.28,16.63,1.28,21.94v20.55c0,5.31-0.43,12.64-1.28,21.8
			c-0.76,8.02-1.76,13.54-3.03,16.76h38.06c-1.18-3.36-2.16-9-3-17.14c-0.93-9.16-1.41-16.37-1.41-21.42v-2.97l1.16,0.18
			c2.53,0.4,5.02,2.43,7.6,6.2c2.44,3.58,4.39,7.38,5.77,11.29c1.29,3.62,2.64,7.53,4.11,11.95c1.87,5.59,2.2,6.43,2.26,6.55
			c1.06,2.43,0.95,4.15,0.34,5.36H361.91z M318.15,550.45c-3.94,5.46-9.38,8.48-16.15,9h-3.65v-1l0.26-52.4v-0.73l0.7-0.22
			c0.65-0.2,1.61-0.3,2.87-0.3c6.97,0,12.38,2.42,16.07,7.21c3.64,4.68,5.48,10.81,5.48,18.21
			C323.9,538.25,322.03,545.07,318.15,550.45z"/>
	</g>
	<g>
		<path class="st1" d="M509.31,585.7v-26.21c0-7.51-1.31-13.97-3.88-19.2c-2.53-5.17-5.97-8.96-10.23-11.26
			c-4.39-2.35-8.63-4.01-12.6-4.92c-4.08-0.92-8.42-1.38-12.88-1.38c-4.81,0-10.13,1.23-15.79,3.65c-5.63,2.4-9.97,5.86-12.91,10.28
			c-0.35,0.59-0.19,0.74-0.13,0.81l0.07,0.07l0.06,0.08c0.28,0.42,1.61,2.19,4.45,5.84c2.11,2.75,3.6,4.75,4.57,6.14
			c0.36-5.26,1.89-10.29,4.57-15c2.96-5.24,7.06-8.17,12.18-8.73h1.64c3.92,0,7,1.23,9.16,3.65c3.38,3.79,4.49,10.26,3.41,19.81
			l-0.1,0.83l-0.83,0.05c-2.46,0.16-5.76,0.82-10.08,2.02c-4.38,1.23-9.68,2.84-15.8,5.48c-12.07,5.22-18.12,10.91-23.46,15.93
			c-5.32,5.01-9.92,9.34-18.84,10.99c-1.3,0.24-2.6,0.36-3.88,0.36c-8.11,0-15.67-5.03-21.29-14.18l-0.84-1.36l1.59-0.16
			c3.62-0.35,7.37-0.99,11.16-1.9c3.82-0.92,8.01-2.29,12.44-4.07c4.31-1.74,8-4.17,10.97-7.22c2.91-2.98,4.72-6.48,5.39-10.4
			c0.97-6.18-1.35-11.46-7.09-16.13c-5.8-4.71-13.19-7.1-21.98-7.1c-0.2,0-0.68,0.02-1.56,0.13c-0.75,0.08-1.35,0.13-1.75,0.13
			c-13.32,0.67-23.26,5.25-29.55,13.61c-6.32,8.39-9.28,18.07-8.8,28.76c0.67,12,4.92,21.53,12.64,28.31
			c7.74,6.83,17.85,10.29,30.04,10.29c8.61-0.34,16.32-3.2,22.88-8.5c3.34-2.71,5.98-5.77,7.84-9.07l1.75-3.12l0.12,3.58
			c0.38,11.5,8.1,17.1,23.58,17.11c5.45-0.34,10.33-2.01,14.5-4.95c4.23-3,7.46-6.35,9.61-9.98l0.45-0.75
			c-4,4.92-8.09,7.41-12.18,7.41c-0.98,0-1.64-0.1-2.13-0.31c-5.94-1.35-8.58-6.87-7.87-16.44c0.53-7.91,3.23-14.35,8.01-19.12
			c4.72-4.73,9.36-7.76,13.79-9l1.27-0.35v33.68c0,0.95,0.07,1.61,0.2,1.97l0.18,0.51l-0.2,0.27l0.33,2.51
			c1.12,8.41,5.58,12.5,13.65,12.5h18.44C510.75,595.61,509.31,590.25,509.31,585.7z M385.15,567.94
			c-3.34-5.96-4.85-13.05-4.49-21.08c0.16-5.03,1.32-9.99,3.43-14.74c2.15-4.84,5.18-7.29,9.01-7.29c0.14,0,0.27,0,0.42,0.01
			c4.03,0.2,7.01,2.88,8.85,7.97c1.77,4.86,2.31,9.4,1.6,13.49c-0.89,5.64-3.09,10.48-6.54,14.37c-3.42,3.88-7.16,6.48-11.11,7.74
			l-0.77,0.25L385.15,567.94z"/>
	</g>
	<g>
		<path class="st1" d="M529.5,584.66v-75.05c0-5.6-1.49-11.35-4.42-17.1l33.49-9.58l0.26,101.73c0,5.49,1.42,11.11,4.23,16.73
			h-37.79C528.08,595.77,529.5,590.15,529.5,584.66z"/>
	</g>
	<g>
		<path class="st1" d="M604.74,493.49c0,3.98-1.5,7.54-4.47,10.59c-3.01,3.08-6.51,4.58-10.7,4.58c-4.24,0-7.8-1.46-10.88-4.47
			c-3.08-2.99-4.57-6.49-4.57-10.7c0-4.21,1.5-7.72,4.57-10.72c3.1-3.01,6.65-4.47,10.88-4.47c4.13,0,7.74,1.5,10.71,4.45
			C603.28,485.77,604.74,489.28,604.74,493.49z"/>
	</g>
	<g>
		<path class="st1" d="M665.89,601.39h-18.32c-9.53,0-14.16-5.72-14.16-17.5v-33.14c0-15.15-4.4-22.83-13.07-22.83h-0.07l-0.06,0.01
			c-4.15,0.57-7.27,3.5-9.29,8.73c-1.93,4.99-2.73,10.61-2.37,16.69v31.31c0,5.49,1.42,11.11,4.23,16.73h-37.81
			c2.81-5.62,4.23-11.24,4.23-16.73v-38.79c0-4.08-0.9-16.46-3.01-21.45c-0.41-1-0.88-2.01-1.39-3.01l33.49-8.36v26.71l1.9-3.98
			c3.96-8.27,10.4-12.54,19.68-13.05c8.11,0.01,14.75,2.02,19.73,5.99c1.51,1.2,2.89,2.6,4.11,4.16c5.32,6.8,8.01,15.93,8.01,27.13
			v25.69C661.72,590.99,663.12,596.26,665.89,601.39z"/>
	</g>
	<g>
		<path class="st1" d="M756.77,601.39h-18.32c-9.53,0-14.16-5.72-14.16-17.5v-33.14c0-15.15-4.4-22.83-13.07-22.83h-0.07l-0.07,0.01
			c-4.14,0.57-7.26,3.5-9.28,8.73c-1.91,4.95-2.71,10.57-2.37,16.69v31.31c0,5.49,1.42,11.11,4.23,16.73h-20.7
			c-2.95-5.14-4.45-10.41-4.45-15.69v-25.69c0-11.66-2.84-21.2-8.44-28.36c-0.9-1.15-1.89-2.23-2.94-3.21l32.04-8v19.3l1.9-3.95
			c3.98-8.28,10.41-12.55,19.68-13.06c10.57,0.01,18.6,3.42,23.86,10.15c5.3,6.81,7.99,15.94,7.99,27.13v25.69
			C752.6,590.99,754,596.26,756.77,601.39z"/>
	</g>
</g>
<path class="st1" d="M227.86,511.12h-70.27c-3.9,0-7.09,3.19-7.09,7.09v70.28c0,3.9,3.19,7.09,7.09,7.09h70.27
	c3.9,0,7.09-3.19,7.09-7.09v-70.28C234.95,514.31,231.76,511.12,227.86,511.12z M186.17,534.96h3.74c0.73,0,1.32,0.59,1.32,1.32
	v9.16c0,0.73-0.59,1.32-1.32,1.32h-3.74c-0.73,0-1.32-0.59-1.32-1.32v-9.16C184.85,535.55,185.44,534.96,186.17,534.96z
	 M163.99,549.16c0.32-0.35,0.66-0.68,1.01-1.02c0.36-0.33,0.72-0.65,1.09-0.97c0.06-0.05,0.11-0.09,0.17-0.14
	c0.49-0.4,1.19-0.41,1.68,0c0.39,0.33,0.8,0.7,1.23,1.1c0.4,0.39,0.78,0.76,1.12,1.13c0.46,0.5,0.46,1.28,0,1.78
	c-0.34,0.37-0.72,0.75-1.12,1.13c-0.42,0.4-0.82,0.76-1.21,1.09c-0.48,0.41-1.18,0.4-1.67,0.01c-0.06-0.05-0.12-0.1-0.19-0.15
	c-0.37-0.3-0.73-0.62-1.09-0.95c-0.36-0.34-0.69-0.67-1.01-1.02c-0.04-0.04-0.07-0.08-0.11-0.12c-0.46-0.5-0.46-1.26,0-1.76
	C163.92,549.24,163.96,549.2,163.99,549.16z M178.97,560.06c-0.7,1.73-1.67,3.16-2.91,4.3c-1.24,1.13-2.73,1.98-4.46,2.55
	c-1.73,0.56-3.64,0.84-5.71,0.84c-2.07,0-3.84-0.25-5.31-0.75c-1.47-0.51-2.68-1.19-3.64-2.05c-0.95-0.87-1.65-1.87-2.1-3.02
	c-0.45-1.15-0.67-2.37-0.67-3.66c0-0.55,0.06-1.16,0.17-1.83c0.12-0.67,0.29-1.33,0.53-2c0.24-0.67,0.56-1.31,0.95-1.91
	c0.29-0.45,0.63-0.87,1.01-1.26c0.25-0.25,0.6-0.39,0.96-0.37c0.63,0.04,1.29,0.13,1.96,0.29c0.87,0.21,1.64,0.47,2.31,0.79
	c-0.25,0.28-0.49,0.61-0.69,0.99s-0.38,0.77-0.53,1.19c-0.15,0.41-0.26,0.83-0.35,1.24c-0.08,0.41-0.12,0.79-0.12,1.13
	c0,0.49,0.05,0.98,0.16,1.48c0.1,0.5,0.34,0.97,0.72,1.4c0.38,0.42,0.93,0.77,1.66,1.03c0.72,0.26,1.72,0.39,2.98,0.39
	c1.22,0,2.31-0.11,3.28-0.33c0.97-0.22,1.78-0.59,2.45-1.12c0.67-0.53,1.17-1.24,1.52-2.14c0.35-0.89,0.52-2.01,0.52-3.34
	c0-0.64-0.02-1.24-0.07-1.79c-0.04-0.55-0.11-1.12-0.19-1.73c-0.08-0.6-0.19-1.24-0.33-1.95c-0.05-0.26-0.11-0.54-0.17-0.84
	c-0.17-0.82,0.45-1.59,1.29-1.59h3.72c0.6,0,1.13,0.42,1.28,1c0.11,0.45,0.21,0.87,0.29,1.26c0.14,0.65,0.25,1.29,0.33,1.9
	c0.08,0.61,0.13,1.22,0.17,1.83c0.04,0.61,0.05,1.28,0.05,2.02C180.03,556.32,179.68,558.34,178.97,560.06z M182.96,556.12
	c0.02-0.21,0.04-0.41,0.07-0.62c0.09-0.64,0.66-1.11,1.3-1.11H186c-0.55-0.23-0.99-0.55-1.31-0.97c-0.32-0.41-0.49-0.89-0.49-1.45
	c0-0.74,0.34-1.32,1.02-1.76c0.68-0.44,1.6-0.66,2.77-0.66c0.81,0,1.46,0.07,1.97,0.21c0.09,0.02,0.18,0.05,0.27,0.08
	c0.63,0.19,1.02,0.81,0.93,1.46c-0.03,0.2-0.06,0.39-0.09,0.59c-0.01,0.08-0.03,0.16-0.05,0.25c-0.15,0.73-0.89,1.18-1.61,1
	c-0.36-0.09-0.68-0.13-0.96-0.13c-0.64,0-0.97,0.23-0.97,0.69c0,0.46,0.37,0.69,1.1,0.69h2.16c0.81,0,1.43,0.72,1.31,1.51
	c-0.01,0.07-0.02,0.14-0.03,0.21c-0.04,0.27-0.1,0.53-0.17,0.78c-0.15,0.57-0.68,0.95-1.27,0.95h-6.31c-0.76,0-1.37-0.64-1.32-1.4
	C182.95,556.34,182.95,556.23,182.96,556.12z M202.55,565.01c-1.06,0.93-2.27,1.62-3.65,2.07c-1.38,0.45-2.89,0.67-4.52,0.67
	c-1.73,0-3.25-0.25-4.57-0.76c-1.32-0.51-2.44-1.19-3.34-2.05c-0.91-0.87-1.6-1.87-2.07-3.02c-0.05-0.11-0.09-0.22-0.13-0.33
	c-0.32-0.86,0.33-1.77,1.24-1.77h5.12c0.29,0,0.57,0.07,0.8,0.24c0.21,0.15,0.44,0.28,0.69,0.4c0.58,0.26,1.32,0.39,2.24,0.39
	c0.97,0,1.82-0.12,2.55-0.38c0.74-0.25,1.35-0.66,1.83-1.24c0.49-0.57,0.85-1.33,1.11-2.26c0.25-0.93,0.37-2.06,0.37-3.4v-17.27
	c0-0.73,0.59-1.32,1.32-1.32h3.75c0.73,0,1.32,0.59,1.32,1.32v13.17c0,1.33,0.2,2.24,0.61,2.72c0.4,0.49,1,0.73,1.81,0.73
	c0.76,0,1.35-0.26,1.78-0.78c0.42-0.51,0.64-1.52,0.64-3.01v-4.54c0-0.73,0.59-1.32,1.32-1.32h3.74c0.73,0,1.32,0.59,1.32,1.32v6.27
	c0,1.63-0.18,3.01-0.55,4.15c-0.37,1.14-0.86,2.06-1.48,2.78c-0.62,0.71-1.35,1.23-2.19,1.55s-1.73,0.48-2.67,0.48h-0.35l0,0
	c-1.02-0.03-1.86-0.3-2.49-0.82c-0.02-0.02-0.04-0.03-0.06-0.05c-0.75-0.64-1.88-0.34-2.16,0.6c-0.2,0.68-0.44,1.32-0.72,1.91
	C204.48,562.89,203.61,564.07,202.55,565.01z M216.88,566.47c-0.42,0.4-0.83,0.77-1.22,1.1c-0.5,0.42-1.22,0.4-1.71-0.03
	c-0.13-0.11-0.26-0.23-0.39-0.35c-0.45-0.4-0.89-0.81-1.33-1.22c-0.44,0.41-0.88,0.82-1.33,1.22c-0.14,0.12-0.27,0.24-0.4,0.35
	c-0.49,0.42-1.21,0.45-1.71,0.03c-0.05-0.05-0.11-0.09-0.16-0.14c-0.36-0.31-0.71-0.63-1.07-0.97c-0.36-0.34-0.69-0.67-1.01-1.02
	c-0.04-0.04-0.07-0.08-0.11-0.12c-0.46-0.5-0.46-1.26,0-1.76c0.04-0.04,0.07-0.08,0.11-0.12c0.32-0.35,0.66-0.68,1.01-1.02
	c0.36-0.33,0.72-0.65,1.07-0.95c0.06-0.05,0.12-0.1,0.18-0.15c0.5-0.41,1.22-0.39,1.71,0.03c0.13,0.11,0.26,0.22,0.39,0.34
	c0.45,0.4,0.89,0.81,1.33,1.22c0.43-0.41,0.88-0.82,1.33-1.22c0.13-0.12,0.27-0.24,0.39-0.35c0.49-0.43,1.22-0.45,1.71-0.03
	c0.39,0.33,0.8,0.7,1.22,1.1c0.4,0.39,0.78,0.76,1.12,1.13c0.46,0.5,0.46,1.28,0,1.78C217.66,565.71,217.29,566.08,216.88,566.47z
	 M229.04,557.82c0,1.7-0.21,3.16-0.64,4.38c-0.43,1.22-1.03,2.23-1.81,3.05c-0.78,0.82-1.72,1.43-2.83,1.83
	c-0.76,0.28-1.57,0.47-2.45,0.58c-0.71,0.09-1.36-0.41-1.47-1.12c-0.12-0.74-0.19-1.46-0.22-2.17c-0.03-0.72-0.05-1.49-0.06-2.29
	c-0.01-0.66,0.49-1.2,1.14-1.31c0.11-0.02,0.22-0.04,0.32-0.07c0.4-0.11,0.72-0.32,0.96-0.64c0.25-0.32,0.42-0.78,0.52-1.38
	c0.11-0.6,0.15-1.4,0.15-2.41v-11.68c0-0.73,0.59-1.32,1.32-1.32h3.75c0.73,0,1.32,0.59,1.32,1.32V557.82z"/>
<rect x="898" width="699" height="562.48"/>
<rect x="898" y="562.48" class="st1" width="699" height="517.52"/>
<g>
	<g>
		<path class="st2" d="M1155.77,881.89c-4.1-3.32-7.78-7.28-10.97-11.79c-8.52-11.9-15.7-22.64-21.36-31.9l-0.66-1.08l1.21-0.39
			c15.43-5.04,22.93-13.3,22.93-25.26c0-9.18-4.2-15.89-12.82-20.49c-8.71-4.65-22.03-7.01-39.59-7.01h-35.95
			c1.27,3.23,2.27,8.79,3.03,16.87c0.85,9.25,1.28,16.63,1.28,21.94v20.55c0,5.31-0.43,12.64-1.28,21.8
			c-0.76,8.02-1.76,13.54-3.03,16.76h38.06c-1.18-3.36-2.16-9-3-17.14c-0.93-9.16-1.41-16.37-1.41-21.42v-2.97l1.16,0.18
			c2.53,0.4,5.02,2.43,7.6,6.2c2.44,3.58,4.39,7.38,5.77,11.29c1.29,3.62,2.64,7.53,4.11,11.95c1.87,5.59,2.2,6.43,2.26,6.55
			c1.06,2.43,0.95,4.15,0.34,5.36H1155.77z M1112.01,830.69c-3.94,5.46-9.38,8.48-16.15,9h-3.65v-1l0.26-52.4v-0.73l0.7-0.22
			c0.65-0.2,1.61-0.3,2.87-0.3c6.97,0,12.38,2.42,16.07,7.21c3.64,4.68,5.48,10.81,5.48,18.21
			C1117.76,818.49,1115.89,825.31,1112.01,830.69z"/>
	</g>
	<g>
		<path class="st2" d="M1303.17,865.94v-26.21c0-7.51-1.31-13.97-3.88-19.2c-2.53-5.17-5.97-8.96-10.23-11.26
			c-4.39-2.35-8.63-4.01-12.6-4.92c-4.08-0.92-8.42-1.38-12.88-1.38c-4.81,0-10.13,1.23-15.79,3.65c-5.63,2.4-9.97,5.86-12.91,10.28
			c-0.35,0.59-0.19,0.74-0.13,0.81l0.07,0.07l0.06,0.08c0.28,0.42,1.61,2.19,4.45,5.84c2.11,2.75,3.6,4.75,4.57,6.14
			c0.36-5.26,1.89-10.29,4.57-15c2.96-5.24,7.06-8.17,12.18-8.73h1.64c3.92,0,7,1.23,9.16,3.65c3.38,3.79,4.49,10.26,3.41,19.81
			l-0.1,0.83l-0.83,0.05c-2.46,0.16-5.76,0.82-10.08,2.02c-4.38,1.23-9.68,2.84-15.8,5.48c-12.07,5.22-18.12,10.91-23.46,15.93
			c-5.32,5.01-9.92,9.34-18.84,10.99c-1.3,0.24-2.6,0.36-3.88,0.36c-8.11,0-15.67-5.03-21.29-14.18l-0.84-1.36l1.59-0.16
			c3.62-0.35,7.37-0.99,11.16-1.9c3.82-0.92,8.01-2.29,12.44-4.07c4.31-1.74,8-4.17,10.97-7.22c2.91-2.98,4.72-6.48,5.39-10.4
			c0.97-6.18-1.35-11.46-7.09-16.13c-5.8-4.71-13.19-7.1-21.98-7.1c-0.2,0-0.68,0.02-1.56,0.13c-0.75,0.08-1.35,0.13-1.75,0.13
			c-13.32,0.67-23.26,5.25-29.55,13.61c-6.32,8.39-9.28,18.07-8.8,28.76c0.67,12,4.92,21.53,12.64,28.31
			c7.74,6.83,17.85,10.29,30.04,10.29c8.61-0.34,16.32-3.2,22.88-8.5c3.34-2.71,5.98-5.77,7.84-9.07l1.75-3.12l0.12,3.58
			c0.38,11.5,8.1,17.1,23.58,17.11c5.45-0.34,10.33-2.01,14.5-4.95c4.23-3,7.46-6.35,9.61-9.98l0.45-0.75
			c-4,4.92-8.09,7.41-12.18,7.41c-0.98,0-1.64-0.1-2.13-0.31c-5.94-1.35-8.58-6.87-7.87-16.44c0.53-7.91,3.23-14.35,8.01-19.12
			c4.72-4.73,9.36-7.76,13.79-9l1.27-0.35v33.68c0,0.95,0.07,1.61,0.2,1.97l0.18,0.51l-0.2,0.27l0.33,2.51
			c1.12,8.41,5.58,12.5,13.65,12.5h18.44C1304.61,875.85,1303.17,870.49,1303.17,865.94z M1179.01,848.18
			c-3.34-5.96-4.85-13.05-4.49-21.08c0.16-5.03,1.32-9.99,3.43-14.74c2.15-4.84,5.18-7.29,9.01-7.29c0.14,0,0.27,0,0.42,0.01
			c4.03,0.2,7.01,2.88,8.85,7.97c1.77,4.86,2.31,9.4,1.6,13.49c-0.89,5.64-3.09,10.48-6.54,14.37c-3.42,3.88-7.16,6.48-11.11,7.74
			l-0.77,0.25L1179.01,848.18z"/>
	</g>
	<g>
		<path class="st2" d="M1323.36,864.9v-75.05c0-5.6-1.49-11.35-4.42-17.1l33.49-9.58l0.26,101.73c0,5.49,1.42,11.11,4.23,16.73
			h-37.79C1321.94,876.01,1323.36,870.39,1323.36,864.9z"/>
	</g>
	<g>
		<path class="st2" d="M1398.6,773.73c0,3.98-1.5,7.54-4.47,10.59c-3.01,3.08-6.51,4.58-10.7,4.58c-4.24,0-7.8-1.46-10.88-4.47
			c-3.08-2.99-4.57-6.49-4.57-10.7c0-4.21,1.5-7.72,4.57-10.72c3.1-3.01,6.65-4.47,10.88-4.47c4.13,0,7.74,1.5,10.71,4.45
			C1397.14,766.01,1398.6,769.52,1398.6,773.73z"/>
	</g>
	<g>
		<path class="st2" d="M1459.75,881.63h-18.32c-9.53,0-14.16-5.72-14.16-17.5v-33.14c0-15.15-4.4-22.83-13.07-22.83h-0.07
			l-0.06,0.01c-4.15,0.57-7.27,3.5-9.29,8.73c-1.93,4.99-2.73,10.61-2.37,16.69v31.31c0,5.49,1.42,11.11,4.23,16.73h-37.81
			c2.81-5.62,4.23-11.24,4.23-16.73v-38.79c0-4.08-0.9-16.46-3.01-21.45c-0.41-1-0.88-2.01-1.39-3.01l33.49-8.36V820l1.9-3.98
			c3.96-8.27,10.4-12.54,19.68-13.05c8.11,0.01,14.75,2.02,19.73,5.99c1.51,1.2,2.89,2.6,4.11,4.16c5.32,6.8,8.01,15.93,8.01,27.13
			v25.69C1455.58,871.23,1456.98,876.5,1459.75,881.63z"/>
	</g>
	<g>
		<path class="st2" d="M1550.63,881.63h-18.32c-9.53,0-14.16-5.72-14.16-17.5v-33.14c0-15.15-4.4-22.83-13.07-22.83h-0.07
			l-0.07,0.01c-4.14,0.57-7.26,3.5-9.28,8.73c-1.91,4.95-2.71,10.57-2.37,16.69v31.31c0,5.49,1.42,11.11,4.23,16.73h-20.7
			c-2.95-5.14-4.45-10.41-4.45-15.69v-25.69c0-11.66-2.84-21.2-8.44-28.36c-0.9-1.15-1.89-2.23-2.94-3.21l32.04-8v19.3l1.9-3.95
			c3.98-8.28,10.41-12.55,19.68-13.06c10.57,0.01,18.6,3.42,23.86,10.15c5.3,6.81,7.99,15.94,7.99,27.13v25.69
			C1546.46,871.23,1547.86,876.5,1550.63,881.63z"/>
	</g>
</g>
<path class="st2" d="M1021.72,791.36h-70.27c-3.9,0-7.09,3.19-7.09,7.09v70.28c0,3.9,3.19,7.09,7.09,7.09h70.27
	c3.9,0,7.09-3.19,7.09-7.09v-70.28C1028.81,794.55,1025.62,791.36,1021.72,791.36z M980.03,815.2h3.74c0.73,0,1.32,0.59,1.32,1.32
	v9.16c0,0.73-0.59,1.32-1.32,1.32h-3.74c-0.73,0-1.32-0.59-1.32-1.32v-9.16C978.71,815.79,979.3,815.2,980.03,815.2z M957.86,829.4
	c0.32-0.35,0.66-0.68,1.01-1.02c0.36-0.33,0.72-0.65,1.09-0.97c0.06-0.05,0.11-0.09,0.17-0.14c0.49-0.4,1.19-0.41,1.68,0
	c0.39,0.33,0.8,0.7,1.23,1.1c0.4,0.39,0.78,0.76,1.12,1.13c0.46,0.5,0.46,1.28,0,1.78c-0.34,0.37-0.72,0.74-1.12,1.13
	c-0.42,0.4-0.82,0.76-1.21,1.09c-0.48,0.41-1.18,0.4-1.67,0.01c-0.06-0.05-0.12-0.1-0.19-0.15c-0.37-0.3-0.73-0.62-1.09-0.95
	c-0.36-0.34-0.69-0.67-1.01-1.02c-0.04-0.04-0.07-0.08-0.11-0.12c-0.46-0.5-0.46-1.26,0-1.76
	C957.78,829.48,957.82,829.44,957.86,829.4z M972.84,840.3c-0.7,1.73-1.67,3.16-2.91,4.3c-1.24,1.13-2.73,1.98-4.46,2.55
	c-1.73,0.56-3.64,0.84-5.71,0.84c-2.07,0-3.84-0.25-5.31-0.75c-1.47-0.51-2.68-1.19-3.64-2.05c-0.95-0.87-1.65-1.87-2.1-3.02
	c-0.45-1.15-0.67-2.37-0.67-3.66c0-0.55,0.06-1.16,0.17-1.83c0.12-0.67,0.29-1.33,0.53-2c0.24-0.67,0.56-1.31,0.95-1.91
	c0.29-0.45,0.63-0.87,1.01-1.26c0.25-0.25,0.6-0.39,0.96-0.37c0.63,0.04,1.29,0.13,1.96,0.29c0.87,0.21,1.64,0.47,2.31,0.79
	c-0.25,0.28-0.49,0.61-0.69,0.99c-0.21,0.38-0.38,0.77-0.53,1.19c-0.15,0.41-0.26,0.83-0.35,1.24c-0.08,0.41-0.12,0.79-0.12,1.13
	c0,0.49,0.05,0.98,0.16,1.48c0.1,0.5,0.34,0.97,0.72,1.4c0.38,0.42,0.93,0.77,1.66,1.03c0.72,0.26,1.72,0.39,2.98,0.39
	c1.22,0,2.31-0.11,3.28-0.33c0.97-0.22,1.78-0.59,2.45-1.12c0.67-0.53,1.17-1.24,1.52-2.14c0.35-0.89,0.52-2.01,0.52-3.34
	c0-0.64-0.02-1.24-0.07-1.79c-0.04-0.55-0.11-1.12-0.19-1.73c-0.08-0.6-0.19-1.24-0.33-1.95c-0.05-0.26-0.11-0.54-0.17-0.84
	c-0.17-0.82,0.45-1.59,1.29-1.59h3.72c0.6,0,1.13,0.42,1.28,1c0.11,0.45,0.21,0.87,0.29,1.26c0.14,0.65,0.25,1.29,0.33,1.9
	c0.08,0.61,0.13,1.22,0.17,1.83c0.04,0.61,0.05,1.28,0.05,2.02C973.89,836.56,973.54,838.57,972.84,840.3z M976.83,836.36
	c0.02-0.21,0.04-0.41,0.07-0.62c0.09-0.64,0.66-1.11,1.3-1.11h1.66c-0.55-0.23-0.99-0.55-1.31-0.97c-0.32-0.41-0.49-0.89-0.49-1.45
	c0-0.74,0.34-1.32,1.02-1.76c0.68-0.44,1.6-0.66,2.77-0.66c0.81,0,1.46,0.07,1.97,0.21c0.09,0.02,0.18,0.05,0.27,0.08
	c0.63,0.19,1.02,0.81,0.93,1.46c-0.03,0.2-0.06,0.39-0.09,0.59c-0.01,0.08-0.03,0.16-0.05,0.25c-0.15,0.73-0.89,1.18-1.61,1
	c-0.36-0.09-0.68-0.13-0.96-0.13c-0.64,0-0.97,0.23-0.97,0.69c0,0.46,0.37,0.69,1.1,0.69h2.16c0.81,0,1.43,0.72,1.31,1.51
	c-0.01,0.07-0.02,0.14-0.03,0.21c-0.04,0.27-0.1,0.53-0.17,0.78c-0.15,0.57-0.68,0.95-1.27,0.95h-6.31c-0.76,0-1.37-0.64-1.32-1.4
	C976.81,836.58,976.82,836.47,976.83,836.36z M996.41,845.25c-1.06,0.93-2.27,1.62-3.65,2.07c-1.38,0.45-2.89,0.67-4.52,0.67
	c-1.73,0-3.25-0.25-4.57-0.76c-1.32-0.51-2.44-1.19-3.34-2.05c-0.91-0.87-1.6-1.87-2.07-3.02c-0.05-0.11-0.09-0.22-0.13-0.33
	c-0.32-0.86,0.33-1.77,1.24-1.77h5.12c0.29,0,0.57,0.07,0.8,0.24c0.21,0.15,0.44,0.28,0.69,0.4c0.58,0.26,1.32,0.39,2.24,0.39
	c0.97,0,1.82-0.12,2.55-0.38c0.74-0.25,1.35-0.66,1.83-1.24c0.49-0.57,0.85-1.33,1.11-2.26c0.25-0.93,0.37-2.06,0.37-3.4v-17.27
	c0-0.73,0.59-1.32,1.32-1.32h3.75c0.73,0,1.32,0.59,1.32,1.32v13.17c0,1.33,0.2,2.24,0.61,2.72c0.4,0.49,1,0.73,1.81,0.73
	c0.76,0,1.35-0.26,1.78-0.78c0.42-0.51,0.64-1.52,0.64-3.01v-4.54c0-0.73,0.59-1.32,1.32-1.32h3.74c0.73,0,1.32,0.59,1.32,1.32v6.27
	c0,1.63-0.18,3.01-0.55,4.15c-0.37,1.14-0.86,2.06-1.48,2.78c-0.62,0.71-1.35,1.23-2.19,1.55c-0.84,0.32-1.73,0.48-2.67,0.48h-0.35
	l0,0c-1.02-0.03-1.85-0.3-2.49-0.82c-0.02-0.02-0.04-0.03-0.06-0.05c-0.75-0.64-1.88-0.34-2.16,0.6c-0.2,0.68-0.44,1.32-0.72,1.91
	C998.34,843.13,997.47,844.31,996.41,845.25z M1010.75,846.71c-0.42,0.4-0.83,0.77-1.22,1.1c-0.5,0.42-1.22,0.4-1.71-0.03
	c-0.13-0.11-0.26-0.23-0.39-0.35c-0.45-0.4-0.89-0.81-1.33-1.22c-0.44,0.41-0.88,0.82-1.33,1.22c-0.14,0.12-0.27,0.24-0.4,0.35
	c-0.49,0.42-1.21,0.45-1.71,0.03c-0.05-0.05-0.11-0.09-0.16-0.14c-0.36-0.31-0.71-0.63-1.07-0.97c-0.36-0.34-0.69-0.67-1.01-1.02
	c-0.04-0.04-0.07-0.08-0.11-0.12c-0.46-0.5-0.46-1.26,0-1.76c0.04-0.04,0.07-0.08,0.11-0.12c0.32-0.35,0.66-0.68,1.01-1.02
	c0.36-0.33,0.72-0.65,1.07-0.95c0.06-0.05,0.12-0.1,0.18-0.15c0.5-0.41,1.22-0.39,1.71,0.03c0.13,0.11,0.26,0.22,0.39,0.34
	c0.45,0.4,0.89,0.81,1.33,1.22c0.43-0.41,0.88-0.82,1.33-1.22c0.13-0.12,0.27-0.24,0.39-0.35c0.49-0.43,1.22-0.45,1.71-0.03
	c0.39,0.33,0.8,0.7,1.22,1.1c0.4,0.39,0.78,0.76,1.12,1.13c0.46,0.5,0.46,1.28,0,1.78C1011.52,845.94,1011.15,846.32,1010.75,846.71
	z M1022.9,838.06c0,1.7-0.21,3.16-0.64,4.38c-0.43,1.22-1.03,2.23-1.81,3.05c-0.78,0.82-1.72,1.43-2.83,1.83
	c-0.76,0.28-1.57,0.47-2.45,0.58c-0.7,0.09-1.36-0.41-1.47-1.12c-0.12-0.74-0.19-1.46-0.22-2.17c-0.03-0.72-0.05-1.49-0.06-2.29
	c-0.01-0.66,0.49-1.2,1.14-1.31c0.11-0.02,0.22-0.04,0.32-0.07c0.4-0.11,0.72-0.32,0.96-0.64c0.25-0.32,0.42-0.78,0.52-1.38
	c0.11-0.6,0.15-1.4,0.15-2.41v-11.68c0-0.73,0.59-1.32,1.32-1.32h3.74c0.73,0,1.32,0.59,1.32,1.32V838.06z"/>
<g>
	<g>
		<path class="st1" d="M1159.43,341.89c-4.1-3.32-7.78-7.28-10.97-11.79c-8.52-11.9-15.7-22.64-21.36-31.9l-0.66-1.08l1.21-0.39
			c15.43-5.04,22.93-13.3,22.93-25.26c0-9.18-4.2-15.89-12.82-20.49c-8.71-4.65-22.03-7.01-39.59-7.01h-35.95
			c1.27,3.23,2.27,8.79,3.03,16.87c0.85,9.25,1.28,16.63,1.28,21.94v20.55c0,5.31-0.43,12.64-1.28,21.8
			c-0.76,8.02-1.76,13.54-3.03,16.76h38.06c-1.18-3.36-2.16-9-3-17.14c-0.93-9.16-1.41-16.37-1.41-21.42v-2.97l1.16,0.18
			c2.53,0.4,5.02,2.43,7.6,6.2c2.44,3.58,4.39,7.38,5.77,11.29c1.29,3.62,2.64,7.53,4.11,11.95c1.87,5.59,2.2,6.43,2.26,6.55
			c1.06,2.43,0.95,4.15,0.34,5.36H1159.43z M1115.67,290.69c-3.94,5.46-9.38,8.48-16.15,9h-3.65v-1l0.26-52.4v-0.73l0.7-0.22
			c0.65-0.2,1.61-0.3,2.87-0.3c6.97,0,12.38,2.42,16.07,7.21c3.64,4.68,5.48,10.81,5.48,18.21
			C1121.42,278.49,1119.55,285.31,1115.67,290.69z"/>
	</g>
	<g>
		<path class="st1" d="M1306.83,325.94v-26.21c0-7.51-1.31-13.97-3.88-19.2c-2.53-5.17-5.97-8.96-10.23-11.26
			c-4.39-2.35-8.63-4.01-12.6-4.92c-4.08-0.92-8.42-1.38-12.88-1.38c-4.81,0-10.13,1.23-15.79,3.65c-5.63,2.4-9.97,5.86-12.91,10.28
			c-0.35,0.59-0.19,0.74-0.13,0.81l0.07,0.07l0.06,0.08c0.28,0.42,1.61,2.19,4.45,5.84c2.11,2.75,3.6,4.75,4.57,6.14
			c0.36-5.26,1.89-10.29,4.57-15c2.96-5.24,7.06-8.17,12.18-8.73h1.64c3.92,0,7,1.23,9.16,3.65c3.38,3.79,4.49,10.26,3.41,19.81
			l-0.1,0.83l-0.83,0.05c-2.46,0.16-5.76,0.82-10.08,2.02c-4.38,1.23-9.68,2.84-15.8,5.48c-12.07,5.22-18.12,10.91-23.46,15.93
			c-5.32,5.01-9.92,9.34-18.84,10.99c-1.3,0.24-2.6,0.36-3.88,0.36c-8.11,0-15.67-5.03-21.29-14.18l-0.84-1.36l1.59-0.16
			c3.62-0.35,7.37-0.99,11.16-1.9c3.82-0.92,8.01-2.29,12.44-4.07c4.31-1.74,8-4.17,10.97-7.22c2.91-2.98,4.72-6.48,5.39-10.4
			c0.97-6.18-1.35-11.46-7.09-16.13c-5.8-4.71-13.19-7.1-21.98-7.1c-0.2,0-0.68,0.02-1.56,0.13c-0.75,0.08-1.35,0.13-1.75,0.13
			c-13.32,0.67-23.26,5.25-29.55,13.61c-6.32,8.39-9.28,18.07-8.8,28.76c0.67,12,4.92,21.53,12.64,28.31
			c7.74,6.83,17.85,10.29,30.04,10.29c8.61-0.34,16.32-3.2,22.88-8.5c3.34-2.71,5.98-5.77,7.84-9.07l1.75-3.12l0.12,3.58
			c0.38,11.5,8.1,17.1,23.58,17.11c5.45-0.34,10.33-2.01,14.5-4.95c4.23-3,7.46-6.35,9.61-9.98l0.45-0.75
			c-4,4.92-8.09,7.41-12.18,7.41c-0.98,0-1.64-0.1-2.13-0.31c-5.94-1.35-8.58-6.87-7.87-16.44c0.53-7.91,3.23-14.35,8.01-19.12
			c4.72-4.73,9.36-7.76,13.79-9l1.27-0.35v33.68c0,0.95,0.07,1.61,0.2,1.97l0.18,0.51l-0.2,0.27l0.33,2.51
			c1.12,8.41,5.58,12.5,13.65,12.5h18.44C1308.27,335.85,1306.83,330.49,1306.83,325.94z M1182.67,308.18
			c-3.34-5.96-4.85-13.05-4.49-21.08c0.16-5.03,1.32-9.99,3.43-14.74c2.15-4.84,5.18-7.29,9.01-7.29c0.14,0,0.27,0,0.42,0.01
			c4.03,0.2,7.01,2.88,8.85,7.97c1.77,4.86,2.31,9.4,1.6,13.49c-0.89,5.64-3.09,10.48-6.54,14.37c-3.42,3.88-7.16,6.48-11.11,7.74
			l-0.77,0.25L1182.67,308.18z"/>
	</g>
	<g>
		<path class="st1" d="M1327.02,324.9v-75.05c0-5.6-1.49-11.35-4.42-17.1l33.49-9.58l0.26,101.73c0,5.49,1.42,11.11,4.23,16.73
			h-37.79C1325.6,336.01,1327.02,330.39,1327.02,324.9z"/>
	</g>
	<g>
		<path class="st1" d="M1402.26,233.73c0,3.98-1.5,7.54-4.47,10.59c-3.01,3.08-6.51,4.58-10.7,4.58c-4.24,0-7.8-1.46-10.88-4.47
			c-3.08-2.99-4.57-6.49-4.57-10.7c0-4.21,1.5-7.72,4.57-10.72c3.1-3.01,6.65-4.47,10.88-4.47c4.13,0,7.74,1.5,10.71,4.45
			C1400.8,226.01,1402.26,229.52,1402.26,233.73z"/>
	</g>
	<g>
		<path class="st1" d="M1463.41,341.63h-18.32c-9.53,0-14.16-5.72-14.16-17.5v-33.14c0-15.15-4.4-22.83-13.07-22.83h-0.07
			l-0.06,0.01c-4.15,0.57-7.27,3.5-9.29,8.73c-1.93,4.99-2.73,10.61-2.37,16.69v31.31c0,5.49,1.42,11.11,4.23,16.73h-37.81
			c2.81-5.62,4.23-11.24,4.23-16.73v-38.79c0-4.08-0.9-16.46-3.01-21.45c-0.41-1-0.88-2.01-1.39-3.01l33.49-8.36V280l1.9-3.98
			c3.96-8.27,10.4-12.54,19.68-13.05c8.11,0.01,14.75,2.02,19.73,5.99c1.51,1.2,2.89,2.6,4.11,4.16c5.32,6.8,8.01,15.93,8.01,27.13
			v25.69C1459.24,331.23,1460.64,336.5,1463.41,341.63z"/>
	</g>
	<g>
		<path class="st1" d="M1554.29,341.63h-18.32c-9.53,0-14.16-5.72-14.16-17.5v-33.14c0-15.15-4.4-22.83-13.07-22.83h-0.07
			l-0.07,0.01c-4.14,0.57-7.26,3.5-9.28,8.73c-1.91,4.95-2.71,10.57-2.37,16.69v31.31c0,5.49,1.42,11.11,4.23,16.73h-20.7
			c-2.95-5.14-4.45-10.41-4.45-15.69v-25.69c0-11.66-2.84-21.2-8.44-28.36c-0.9-1.15-1.89-2.23-2.94-3.21l32.04-8v19.3l1.9-3.95
			c3.98-8.28,10.41-12.55,19.68-13.06c10.57,0.01,18.6,3.42,23.86,10.15c5.3,6.81,7.99,15.94,7.99,27.13v25.69
			C1550.12,331.23,1551.52,336.5,1554.29,341.63z"/>
	</g>
</g>
<path class="st1" d="M1025.39,251.36h-70.27c-3.9,0-7.09,3.19-7.09,7.09v70.28c0,3.9,3.19,7.09,7.09,7.09h70.27
	c3.9,0,7.09-3.19,7.09-7.09v-70.28C1032.47,254.55,1029.28,251.36,1025.39,251.36z M983.7,275.2h3.74c0.73,0,1.32,0.59,1.32,1.32
	v9.16c0,0.73-0.59,1.32-1.32,1.32h-3.74c-0.73,0-1.32-0.59-1.32-1.32v-9.16C982.38,275.79,982.97,275.2,983.7,275.2z M961.52,289.4
	c0.32-0.35,0.66-0.68,1.01-1.02c0.36-0.33,0.72-0.65,1.09-0.97c0.06-0.05,0.11-0.09,0.17-0.14c0.49-0.4,1.19-0.41,1.68,0
	c0.39,0.33,0.8,0.7,1.23,1.1c0.4,0.39,0.78,0.76,1.12,1.13c0.46,0.5,0.46,1.28,0,1.78c-0.34,0.37-0.72,0.75-1.12,1.13
	c-0.42,0.4-0.82,0.76-1.21,1.09c-0.48,0.41-1.18,0.4-1.67,0.01c-0.06-0.05-0.12-0.1-0.19-0.15c-0.37-0.3-0.73-0.62-1.09-0.95
	c-0.36-0.34-0.69-0.67-1.01-1.02c-0.04-0.04-0.07-0.08-0.11-0.12c-0.46-0.5-0.46-1.26,0-1.76
	C961.45,289.48,961.48,289.44,961.52,289.4z M976.5,300.3c-0.7,1.73-1.67,3.16-2.91,4.3c-1.24,1.13-2.73,1.98-4.46,2.55
	c-1.73,0.56-3.64,0.84-5.71,0.84c-2.07,0-3.84-0.25-5.31-0.75c-1.47-0.51-2.68-1.19-3.64-2.05c-0.95-0.87-1.65-1.87-2.1-3.02
	c-0.45-1.15-0.67-2.37-0.67-3.66c0-0.55,0.06-1.16,0.17-1.83c0.12-0.67,0.29-1.33,0.53-2c0.24-0.67,0.56-1.31,0.95-1.91
	c0.29-0.45,0.63-0.87,1.01-1.26c0.25-0.25,0.6-0.39,0.96-0.37c0.63,0.04,1.29,0.13,1.96,0.29c0.87,0.21,1.64,0.47,2.31,0.79
	c-0.25,0.28-0.49,0.61-0.69,0.99c-0.21,0.38-0.38,0.77-0.53,1.19c-0.15,0.41-0.26,0.83-0.35,1.24c-0.08,0.41-0.12,0.79-0.12,1.13
	c0,0.49,0.05,0.98,0.16,1.48c0.1,0.5,0.34,0.97,0.72,1.4c0.38,0.42,0.93,0.77,1.66,1.03c0.72,0.26,1.72,0.39,2.98,0.39
	c1.22,0,2.31-0.11,3.28-0.33c0.97-0.22,1.78-0.59,2.45-1.12c0.67-0.53,1.17-1.24,1.52-2.14c0.35-0.89,0.52-2.01,0.52-3.34
	c0-0.64-0.02-1.24-0.07-1.79c-0.04-0.55-0.11-1.12-0.19-1.73c-0.08-0.6-0.19-1.24-0.33-1.95c-0.05-0.26-0.11-0.54-0.17-0.84
	c-0.17-0.82,0.45-1.59,1.29-1.59h3.72c0.6,0,1.13,0.42,1.28,1c0.11,0.45,0.21,0.87,0.29,1.26c0.14,0.65,0.25,1.29,0.33,1.9
	c0.08,0.61,0.13,1.22,0.17,1.83c0.04,0.61,0.05,1.28,0.05,2.02C977.55,296.56,977.2,298.57,976.5,300.3z M980.49,296.36
	c0.02-0.21,0.04-0.41,0.07-0.62c0.09-0.64,0.66-1.11,1.3-1.11h1.66c-0.55-0.23-0.99-0.55-1.31-0.97c-0.32-0.41-0.49-0.89-0.49-1.45
	c0-0.74,0.34-1.32,1.02-1.76c0.68-0.44,1.6-0.66,2.77-0.66c0.81,0,1.46,0.07,1.97,0.21c0.09,0.02,0.18,0.05,0.27,0.08
	c0.63,0.19,1.02,0.81,0.93,1.46c-0.03,0.2-0.06,0.39-0.09,0.59c-0.01,0.08-0.03,0.16-0.05,0.25c-0.15,0.73-0.89,1.18-1.61,1
	c-0.36-0.09-0.68-0.13-0.96-0.13c-0.64,0-0.97,0.23-0.97,0.69c0,0.46,0.37,0.69,1.1,0.69h2.16c0.81,0,1.43,0.72,1.31,1.51
	c-0.01,0.07-0.02,0.14-0.03,0.21c-0.04,0.27-0.1,0.53-0.17,0.78c-0.15,0.57-0.68,0.95-1.27,0.95h-6.31c-0.76,0-1.37-0.64-1.32-1.4
	C980.47,296.58,980.48,296.47,980.49,296.36z M1000.08,305.25c-1.06,0.93-2.27,1.62-3.65,2.07c-1.38,0.45-2.89,0.67-4.52,0.67
	c-1.73,0-3.25-0.25-4.57-0.76c-1.32-0.51-2.44-1.19-3.34-2.05c-0.91-0.87-1.6-1.87-2.07-3.02c-0.05-0.11-0.09-0.22-0.13-0.33
	c-0.32-0.86,0.33-1.77,1.24-1.77h5.12c0.29,0,0.57,0.07,0.8,0.24c0.21,0.15,0.44,0.28,0.69,0.4c0.58,0.26,1.32,0.39,2.24,0.39
	c0.97,0,1.82-0.12,2.55-0.38c0.74-0.25,1.35-0.66,1.83-1.24c0.49-0.57,0.85-1.33,1.11-2.26c0.25-0.93,0.37-2.06,0.37-3.4v-17.27
	c0-0.73,0.59-1.32,1.32-1.32h3.74c0.73,0,1.32,0.59,1.32,1.32v13.17c0,1.33,0.2,2.24,0.61,2.72c0.4,0.49,1,0.73,1.81,0.73
	c0.76,0,1.35-0.26,1.78-0.78c0.42-0.51,0.64-1.52,0.64-3.01v-4.54c0-0.73,0.59-1.32,1.32-1.32h3.74c0.73,0,1.32,0.59,1.32,1.32v6.27
	c0,1.63-0.18,3.01-0.55,4.15c-0.37,1.14-0.86,2.06-1.48,2.78c-0.62,0.71-1.35,1.23-2.19,1.55c-0.84,0.32-1.73,0.48-2.67,0.48h-0.35
	l0,0c-1.02-0.03-1.86-0.3-2.49-0.82c-0.02-0.02-0.04-0.03-0.06-0.05c-0.75-0.64-1.88-0.34-2.16,0.6c-0.2,0.68-0.44,1.32-0.72,1.91
	C1002,303.13,1001.13,304.31,1000.08,305.25z M1014.41,306.71c-0.42,0.4-0.83,0.77-1.22,1.1c-0.5,0.42-1.22,0.4-1.71-0.03
	c-0.13-0.11-0.26-0.23-0.39-0.35c-0.45-0.4-0.89-0.81-1.33-1.22c-0.44,0.41-0.88,0.82-1.33,1.22c-0.14,0.12-0.27,0.24-0.4,0.35
	c-0.49,0.42-1.21,0.45-1.71,0.03c-0.05-0.05-0.11-0.09-0.16-0.14c-0.36-0.31-0.71-0.63-1.07-0.97c-0.36-0.34-0.69-0.67-1.01-1.02
	c-0.04-0.04-0.07-0.08-0.11-0.12c-0.46-0.5-0.46-1.26,0-1.76c0.04-0.04,0.07-0.08,0.11-0.12c0.32-0.35,0.66-0.68,1.01-1.02
	c0.36-0.33,0.72-0.65,1.07-0.95c0.06-0.05,0.12-0.1,0.18-0.15c0.5-0.41,1.22-0.39,1.71,0.03c0.13,0.11,0.26,0.22,0.39,0.34
	c0.45,0.4,0.89,0.81,1.33,1.22c0.43-0.41,0.88-0.82,1.33-1.22c0.13-0.12,0.27-0.24,0.39-0.35c0.49-0.43,1.22-0.45,1.71-0.03
	c0.39,0.33,0.8,0.7,1.22,1.1c0.4,0.39,0.78,0.76,1.12,1.13c0.46,0.5,0.46,1.28,0,1.78C1015.18,305.94,1014.81,306.32,1014.41,306.71
	z M1026.56,298.06c0,1.7-0.21,3.16-0.64,4.38c-0.43,1.22-1.03,2.23-1.81,3.05c-0.78,0.82-1.72,1.43-2.83,1.83
	c-0.76,0.28-1.57,0.47-2.45,0.58c-0.71,0.09-1.36-0.41-1.47-1.12c-0.12-0.74-0.19-1.46-0.22-2.17c-0.03-0.72-0.05-1.49-0.06-2.29
	c-0.01-0.66,0.49-1.2,1.14-1.31c0.11-0.02,0.22-0.04,0.32-0.07c0.4-0.11,0.72-0.32,0.96-0.64c0.25-0.32,0.42-0.78,0.52-1.38
	c0.11-0.6,0.15-1.4,0.15-2.41v-11.68c0-0.73,0.59-1.32,1.32-1.32h3.75c0.73,0,1.32,0.59,1.32,1.32V298.06z"/>
</svg>
