<?xml version="1.0" encoding="UTF-8"?>
<svg version="1.1" xmlns="http://www.w3.org/2000/svg" width="300" height="300">
<path d="M0 0 C3.63 0 7.26 0 11 0 C11 7.92 11 15.84 11 24 C60.5 24 110 24 161 24 C161 16.08 161 8.16 161 0 C164.63 0 168.26 0 172 0 C172.04975174 4.28668688 172.0858847 8.57321697 172.10986328 12.86010742 C172.1198685 14.31586641 172.13347696 15.77160557 172.15087891 17.22729492 C172.17537044 19.3299654 172.18653794 21.43236824 172.1953125 23.53515625 C172.20578613 24.797229 172.21625977 26.05930176 172.22705078 27.35961914 C171.94947387 31.81010222 171.43334224 36.22779695 168.5625 39.77734375 C164.22222222 43 164.22222222 43 162 43 C161.93941406 43.63808594 161.87882813 44.27617187 161.81640625 44.93359375 C161.73261719 45.75988281 161.64882812 46.58617187 161.5625 47.4375 C161.44068359 48.67306641 161.44068359 48.67306641 161.31640625 49.93359375 C161 52 161 52 160 53 C158.14712498 53.07226502 156.29166122 53.0838122 154.4375 53.0625 C153.42558594 53.05347656 152.41367188 53.04445312 151.37109375 53.03515625 C150.58863281 53.02355469 149.80617187 53.01195312 149 53 C148 48.25 148 48.25 148 46 C145.09082485 45.03027495 143.25001046 44.87435081 140.22438049 44.87301636 C139.24158112 44.87019653 138.25878174 44.86737671 137.24620056 44.86447144 C136.16923416 44.86649567 135.09226776 44.8685199 133.98266602 44.87060547 C132.27989502 44.86797699 132.27989502 44.86797699 130.54272461 44.86529541 C126.77976973 44.86088414 123.01686163 44.86381256 119.25390625 44.8671875 C116.64460745 44.86651421 114.03530871 44.86554397 111.42601013 44.86428833 C105.95253999 44.86246856 100.47908333 44.86486765 95.00561523 44.86962891 C88.67939057 44.87506844 82.35319814 44.87331034 76.02697426 44.8678025 C69.94064123 44.86271574 63.85432248 44.8632568 57.7679882 44.86618423 C55.17837456 44.86685228 52.5887601 44.86602935 49.99914742 44.86370468 C46.38165216 44.8611704 42.76421913 44.86502994 39.14672852 44.87060547 C37.53431526 44.86756912 37.53431526 44.86756912 35.889328 44.86447144 C34.4108992 44.86870117 34.4108992 44.86870117 32.90260315 44.87301636 C31.61978124 44.8735819 31.61978124 44.8735819 30.31104374 44.87415886 C28.07775295 44.99576619 26.14267046 45.37745756 24 46 C24.020625 46.969375 24.04125 47.93875 24.0625 48.9375 C24 52 24 52 23 53 C21.189715 53.09879565 19.37547273 53.12971514 17.5625 53.125 C16.57378906 53.12757813 15.58507812 53.13015625 14.56640625 53.1328125 C12 53 12 53 10 52 C10.144375 50.783125 10.28875 49.56625 10.4375 48.3125 C10.46164837 45.57890481 10.43874987 44.45372034 8.51171875 42.4609375 C6.65273311 41.17161398 6.65273311 41.17161398 4.7265625 40.10546875 C1.96996615 38.34049869 1.08623731 36.3818935 0.38110352 33.25927734 C-0.0283607 29.75745332 -0.11272305 26.37719375 -0.09765625 22.8515625 C-0.09553383 21.86547501 -0.09553383 21.86547501 -0.09336853 20.85946655 C-0.08781762 18.78126269 -0.07527465 16.70317073 -0.0625 14.625 C-0.05747864 13.20703282 -0.05291685 11.78906393 -0.04882812 10.37109375 C-0.03786437 6.91402678 -0.02063421 3.45702433 0 0 Z " fill="#000000" transform="translate(64,183)"/>
<path d="M0 0 C6.67175864 5.59909074 10.58749334 12.38385727 11.40625 21.15625 C11.72301586 29.70892819 9.59627422 37.088078 4.1875 43.8125 C-2.57085042 50.9548476 -8.94389925 53.84821354 -18.75 54.25 C-27.59474811 53.98027452 -34.60623959 50.92269448 -41.0546875 44.87890625 C-46.80148448 38.12322713 -49.205688 30.32849632 -49.08984375 21.6015625 C-48.2822703 13.48033089 -44.94336068 6.22291391 -38.8125 0.8125 C-27.12683001 -8.27904823 -12.08066516 -8.78958695 0 0 Z M-23.8125 8.8125 C-23.8125 14.4225 -23.8125 20.0325 -23.8125 25.8125 C-25.7925 26.8025 -25.7925 26.8025 -27.8125 27.8125 C-29.52171589 29.3537312 -29.52171589 29.3537312 -30.8125 30.8125 C-29.73848892 33.72767292 -29.03439824 35.59060176 -26.8125 37.8125 C-22.30388052 37.32117608 -18.98831843 34.81975085 -15.67578125 31.88671875 C-11.61452528 25.18607211 -13.22929203 16.35820306 -13.8125 8.8125 C-17.1125 8.8125 -20.4125 8.8125 -23.8125 8.8125 Z " fill="#000000" transform="translate(168.8125,70.1875)"/>
<path d="M0 0 C1.13244141 -0.03287109 2.26488281 -0.06574219 3.43164062 -0.09960938 C12.71716504 -0.1597984 12.71716504 -0.1597984 15.78515625 2.83984375 C18.00782522 6.08835993 18.68759367 7.65621461 18.67602539 11.52001953 C18.67594986 12.36074005 18.67587433 13.20146057 18.67579651 14.06765747 C18.66805458 15.43022171 18.66805458 15.43022171 18.66015625 16.8203125 C18.6587413 17.74971649 18.65732635 18.67912048 18.65586853 19.63668823 C18.65026053 22.61199124 18.63770668 25.58721964 18.625 28.5625 C18.61998603 30.57682183 18.61542295 32.59114484 18.61132812 34.60546875 C18.60113838 39.5495312 18.58156453 44.49343185 18.5625 49.4375 C6.0225 49.4375 -6.5175 49.4375 -19.4375 49.4375 C-19.50643758 43.54716673 -19.56615149 37.65823778 -19.60229492 31.76782227 C-19.61736465 29.76484428 -19.6378241 27.7618992 -19.66381836 25.7590332 C-19.70028127 22.87703319 -19.71724461 19.99547016 -19.73046875 17.11328125 C-19.74595261 16.22038895 -19.76143646 15.32749664 -19.77738953 14.407547 C-19.77867719 9.63126655 -19.68769195 6.22931423 -16.4375 2.4375 C-11.71015819 -0.8889613 -5.53415845 0.02825152 0 0 Z " fill="#000000" transform="translate(150.4375,148.5625)"/>
<path d="M0 0 C1.08474609 -0.02449219 2.16949219 -0.04898438 3.28710938 -0.07421875 C11.18770137 -0.10335431 11.18770137 -0.10335431 15.19140625 2.0859375 C19.4322859 7.27415352 19.33574289 12.20265108 19.2578125 18.61328125 C19.2549826 19.49404831 19.25215271 20.37481537 19.24923706 21.28227234 C19.23807833 24.08415545 19.21298171 26.88571416 19.1875 29.6875 C19.17746463 31.59179225 19.16833975 33.49608952 19.16015625 35.40039062 C19.13985809 40.05881806 19.10070143 44.71654762 19.0625 49.375 C6.5225 49.375 -6.0175 49.375 -18.9375 49.375 C-19.0065008 43.64537801 -19.06619546 37.91720696 -19.10229492 32.1875 C-19.11734899 30.23985906 -19.1377968 28.29225184 -19.16381836 26.34472656 C-19.20035053 23.53962872 -19.21726033 20.73498046 -19.23046875 17.9296875 C-19.24595261 17.06383026 -19.26143646 16.19797302 -19.27738953 15.30587769 C-19.27877948 10.27345243 -18.87571775 6.66406057 -15.9375 2.375 C-11.41686311 -0.94089104 -5.35361416 0.00633939 0 0 Z " fill="#000000" transform="translate(196.9375,148.625)"/>
<path d="M0 0 C1.051875 0.00064453 2.10375 0.00128906 3.1875 0.00195312 C4.280625 0.01806641 5.37375 0.03417969 6.5 0.05078125 C7.593125 0.04755859 8.68625 0.04433594 9.8125 0.04101562 C19.43102644 0.10584638 19.43102644 0.10584638 22.5 2.36328125 C25.97217217 7.43178127 25.89858742 12.01177251 25.79296875 17.91796875 C25.78872391 18.81951691 25.78447906 19.72106506 25.78010559 20.64993286 C25.76339058 23.5130269 25.72575192 26.37540204 25.6875 29.23828125 C25.67244387 31.18618771 25.65875709 33.13410527 25.64648438 35.08203125 C25.61606969 39.84294381 25.55733547 44.60231334 25.5 49.36328125 C12.96 49.36328125 0.42 49.36328125 -12.5 49.36328125 C-12.56900956 43.77606271 -12.62870122 38.19033308 -12.66479492 32.60302734 C-12.67984691 30.70388772 -12.70029316 28.80478266 -12.72631836 26.90576172 C-12.76285992 24.17016044 -12.77976238 21.43502025 -12.79296875 18.69921875 C-12.80845261 17.85523529 -12.82393646 17.01125183 -12.83988953 16.14169312 C-12.84156886 10.20990344 -12.01629639 5.8912395 -7.65625 1.51098633 C-4.94696785 0.06891937 -3.06258265 -0.00951912 0 0 Z " fill="#000000" transform="translate(96.5,148.63671875)"/>
<path d="" fill="#000000" transform="translate(0,0)"/>
</svg>
